<?xml version="1.0" encoding="utf-8"?>
<!-- Generator: Adobe Illustrator 19.2.0, SVG Export Plug-In . SVG Version: 6.00 Build 0)  -->
<svg version="1.1" id="Capa_1" xmlns="http://www.w3.org/2000/svg" xmlns:xlink="http://www.w3.org/1999/xlink" x="0px" y="0px"
	 viewBox="0 0 450 450" style="enable-background:new 0 0 450 450;" xml:space="preserve">
<style type="text/css">
	.st0{fill:#FF7809;}
</style>
<g>
	<path class="st0" d="M442.5,94.7H7.5c-4.2,0-7.5,3.4-7.5,7.5v245.6c0,4.2,3.4,7.5,7.5,7.5h434.9c4.2,0,7.5-3.4,7.5-7.5V102.2
		C450,98.1,446.6,94.7,442.5,94.7z M435,340.3H15c0,0,0,0,0,0V109.7c0,0,0,0,0,0H435c0,0,0,0,0,0L435,340.3
		C435,340.3,435,340.3,435,340.3z"/>
	<path class="st0" d="M142.2,249.6C142.2,249.6,142.1,249.7,142.2,249.6c-24.3,1.2-47,11.2-64.3,28.5c0,0,0,0,0,0
		c-1.3,1.3-2.9,2.5-4.6,3.1c-3.5,1.3-7.3,2-11.3,2c-8.8,0-16.9-3.5-23-9.7c-2.6-2.7-6.9-3.3-10-1.1c-3.8,2.7-4.1,8-1,11.3
		c9,9.4,21,14.6,34,14.6c10.5,0,20.4-3.4,28.6-9.7c0,0,0,0,0,0c8.1,6.3,18.1,9.7,28.6,9.7s20.4-3.4,28.6-9.7c0,0,0,0,0,0
		c8.1,6.3,18.1,9.7,28.6,9.7s20.4-3.4,28.6-9.7c0,0,0,0,0,0c8.1,6.3,18.1,9.7,28.6,9.7c12.9,0,24.8-5.1,33.8-14.3
		c2.5-2.6,3.1-6.7,1-9.7c-2.8-4-8.4-4.3-11.6-0.9c-6.1,6.4-14.3,9.9-23.2,9.9c-5.4,0-10.5-1.3-15.1-3.8c-0.9-0.5-3.8-2.7-4.4-3.3
		c-15.6-14.8-35.3-23.8-56.5-26.1c0,0,0,0,0,0c2.5-12.8,0.9-26.1-4.5-37.9c-0.4-0.9-1.4-2.9-1.4-2.9c2.5,0.3,4.9,1.6,6.6,3.6
		c1.5,1.8,3.6,2.8,5.8,2.8c1.7,0,3.4-0.6,4.8-1.8c3.1-2.6,3.4-7.6,0.8-10.8c-2.2-2.6-4.9-4.7-7.8-6.2c-0.5-0.2-1.4-0.7-1.4-0.7
		c2.5-0.3,5.1-0.1,7.7,0.6c3,0.8,6.3-0.2,8.1-2.8c3.1-4.6,0.7-10.4-4.2-11.7c-10.7-2.8-22.2-0.6-30.9,6c0,0-0.5-0.7-0.7-1
		c-5.9-8.6-15.2-14.4-25.7-15.6c-5-0.6-9.4,3.8-8.2,9.3c0.7,3.1,3.4,5.2,6.5,5.6c5.6,0.7,10.7,3.6,14.1,8c0,0,0,0.1,0,0.1
		c-10.1-0.6-20.2,3.1-27.6,10.3c-2.9,2.8-3.2,7.5-0.5,10.5c1.5,1.7,3.5,2.5,5.6,2.5c1.9,0,3.8-0.7,5.3-2.2c3.3-3.2,7.4-5.3,11.9-6
		c0.5-0.1,1.5-0.1,1.5-0.1c-1,3.4-1.2,7.1-0.6,10.7c0.6,3.7,3.8,6.3,7.4,6.3c0.9,0,1.7-0.1,2.6-0.5c3.4-1.2,5.2-4.9,4.8-8.5
		c-0.1-1-0.1-2,0.1-3C143.4,225.2,145.2,237.8,142.2,249.6z M153.2,273.4c-2.2-2.4-5.9-3.1-9-1.4c-0.7,0.4-1.4,0.9-1.9,1.5
		c-6.1,6.3-14.3,9.8-23,9.8c-6.3,0-12.4-1.8-17.5-5.2c0,0,0,0,0-0.1c27.7-18.1,63.9-17.9,91.4,0.5c0,0,0,0,0,0.1
		c-5,3-10.7,4.7-16.7,4.7C167.5,283.3,159.2,279.8,153.2,273.4z"/>
	<path class="st0" d="M317.5,155.7h88.7c4.1,0,7.7-3.2,7.8-7.3c0.1-4.2-3.3-7.7-7.5-7.7h-88.7c-4.1,0-7.7,3.2-7.8,7.3
		C309.9,152.2,313.3,155.7,317.5,155.7z"/>
	<path class="st0" d="M181.8,163.8h21.6c0,0,0,0,0,0.1c-1,1.3-1.6,3-1.5,4.8c0.2,4,3.7,7.1,7.8,7.1c10,0,36.3,0,46.4,0
		c4.1,0,7.7-3.2,7.8-7.3c0.1-4.2-3.3-7.7-7.5-7.7h-21.9c0,0,0,0,0-0.1c1-1.3,1.6-3,1.5-4.8c-0.2-4-3.8-7.1-7.8-7.1h-46.7
		c-4.2,0-7.6,3.5-7.5,7.7C174.1,160.7,177.7,163.8,181.8,163.8z"/>
	<path class="st0" d="M317.5,180.2h88.7c4.1,0,7.7-3.2,7.8-7.3c0.1-4.2-3.3-7.7-7.5-7.7h-88.7c-4.1,0-7.7,3.2-7.8,7.3
		C309.9,176.7,313.3,180.2,317.5,180.2z"/>
	<path class="st0" d="M317.5,204.7h88.7c4.1,0,7.7-3.2,7.8-7.3c0.1-4.2-3.3-7.7-7.5-7.7h-88.7c-4.1,0-7.7,3.2-7.8,7.3
		C309.9,201.2,313.3,204.7,317.5,204.7z"/>
	<path class="st0" d="M406.5,214.2h-39.7c-4.1,0-7.7,3.2-7.8,7.3c-0.1,4.2,3.3,7.7,7.5,7.7h39.7c4.1,0,7.7-3.2,7.8-7.3
		C414.1,217.6,410.7,214.2,406.5,214.2z"/>
	<path class="st0" d="M33.4,181.8h34.4c4.2,0,7.5-3.4,7.5-7.5v-43.4c0-4.2-3.4-7.5-7.5-7.5H33.4c-4.2,0-7.5,3.4-7.5,7.5v43.4
		C25.9,178.5,29.3,181.8,33.4,181.8z M40.9,138.3h19.4c0,0,0,0,0,0v28.4c0,0,0,0,0,0H40.9c0,0,0,0,0,0L40.9,138.3
		C40.9,138.4,40.9,138.3,40.9,138.3z"/>
</g>
</svg>
