<?xml version="1.0" encoding="utf-8"?>
<!-- Generator: Adobe Illustrator 19.2.0, SVG Export Plug-In . SVG Version: 6.00 Build 0)  -->
<svg version="1.1" id="Capa_1" xmlns="http://www.w3.org/2000/svg" xmlns:xlink="http://www.w3.org/1999/xlink" x="0px" y="0px"
	 viewBox="0 0 463 463" style="enable-background:new 0 0 463 463;" xml:space="preserve">
<style type="text/css">
	.st0{fill:#FF7809;}
</style>
<g>
	<path class="st0" d="M441,108.4h-28.9h-35.9V22c0-4.1-3.4-7.5-7.5-7.5H94.2c-4.1,0-7.5,3.4-7.5,7.5v86.4H50.9H22
		c-12.1,0-22,9.8-22,21.9v195.1c0,12.1,9.8,22,22,22h35.9v79.2c0,12.1,9.8,22,22,22h303.5c12.1,0,22-9.8,22-22v-79.2H441
		c12.1,0,22-9.8,22-22V130.3C463,118.2,453.2,108.4,441,108.4z M361.3,29.5v86.4c0,0,0,0,0,0.1s0,0,0,0.1v21.3H101.7V116
		c0,0,0,0,0-0.1s0,0,0-0.1V29.5H361.3z M86.7,123.4v21.4c0,4.1,3.4,7.5,7.5,7.5h274.6c4.1,0,7.5-3.4,7.5-7.5v-21.4h28.4v50.3
		c0,7.8-6.4,14.2-14.2,14.2H72.5c-7.8,0-14.2-6.4-14.2-14.2v-50.3C58.4,123.4,86.7,123.4,86.7,123.4z M383.2,433.5H79.8
		c-3.8,0-7-3.1-7-7v-86.7c0,0,0,0,0,0s0,0,0,0v-50.3h13.9v122.6c0,4.1,3.4,7.5,7.5,7.5h274.6c4.1,0,7.5-3.4,7.5-7.5V289.6h13.9v137
		C390.2,430.4,387.1,433.5,383.2,433.5z M101.7,289.6h259.6v115.1H101.7V289.6z M448,325.4c0,3.8-3.1,7-7,7h-35.9v-42.8h7
		c4.1,0,7.5-3.4,7.5-7.5s-3.4-7.5-7.5-7.5h-43.4H94.2H50.9c-4.1,0-7.5,3.4-7.5,7.5s3.4,7.5,7.5,7.5h7v42.8H22c-3.8,0-7-3.1-7-7
		V130.3c0-3.8,3.1-7,7-7h21.4v50.3c0,16.1,13.1,29.2,29.2,29.2h317.9c16.1,0,29.2-13.1,29.2-29.2v-50.3H441c3.8,0,7,3.1,7,7
		L448,325.4L448,325.4z"/>
	<path class="st0" d="M383.2,216.8c-12.1,0-22,9.8-22,22s9.8,22,22,22s22-9.8,22-22S395.3,216.8,383.2,216.8z M383.2,245.7
		c-3.8,0-7-3.1-7-7s3.1-7,7-7s7,3.1,7,7S387.1,245.7,383.2,245.7z"/>
	<path class="st0" d="M332.7,224c-8.1,0-14.7,6.6-14.7,14.7s6.6,14.7,14.7,14.7c8.1,0,14.7-6.6,14.7-14.7
		C347.4,230.6,340.8,224,332.7,224z M332.4,238.7c0-0.2,0.1-0.3,0.3-0.3s0.3,0.1,0.3,0.3C332.9,239,332.4,239,332.4,238.7z"/>
	<path class="st0" d="M128.4,106.7l16.4-16.4l30.8,30.8c1.5,1.5,3.4,2.2,5.3,2.2c1.9,0,3.8-0.7,5.3-2.2c2.9-2.9,2.9-7.7,0-10.6
		l-5.5-5.5l29.1-29.1l45.3,45.3c1.4,1.4,3.3,2.2,5.3,2.2h79.5c4.1,0,7.5-3.4,7.5-7.5s-3.4-7.5-7.5-7.5h-76.4L215.1,60
		c-1.4-1.4-3.3-2.2-5.3-2.2s-3.9,0.8-5.3,2.2l-34.4,34.4l-20-20c-1.4-1.4-3.3-2.2-5.3-2.2s-3.9,0.8-5.3,2.2l-21.7,21.7
		c-2.9,2.9-2.9,7.7,0,10.6C120.7,109.7,125.5,109.7,128.4,106.7z"/>
	<path class="st0" d="M282.1,94.5c12.1,0,22-9.8,22-22s-9.8-22-22-22s-22,9.8-22,22S270,94.5,282.1,94.5z M282.1,65.6
		c3.8,0,7,3.1,7,7s-3.1,7-7,7s-7-3.1-7-7S278.2,65.6,282.1,65.6z"/>
</g>
</svg>
