<?xml version="1.0" encoding="utf-8"?>
<!-- Generator: Adobe Illustrator 19.2.0, SVG Export Plug-In . SVG Version: 6.00 Build 0)  -->
<svg version="1.1" id="Capa_1" xmlns="http://www.w3.org/2000/svg" xmlns:xlink="http://www.w3.org/1999/xlink" x="0px" y="0px"
	 viewBox="0 0 512 512" style="enable-background:new 0 0 512 512;" xml:space="preserve">
<style type="text/css">
	.st0{fill:#FF7809;}
</style>
<g>
	<g>
		<path class="st0" d="M499.4,370.4l-50.7-26.3c0.4-0.7,0.9-1.4,1.3-2.1c10.1-16.8,12.5-37.5,6.2-56.5c-0.3-0.8-0.5-1.6-0.8-2.3
			c0,0,0,0,0-0.1c-3.4-9.1-8.6-17.2-15.5-24.1L315.1,134.6L288,107.4c0,0,0,0,0,0l-35.1-35.2c-23.1-23.1-58.7-26-85-8.9l-26.3-50.7
			C137.3,4.4,129-0.4,119.9,0c-9.2,0.4-17,5.9-20.5,14.4l-5.8,14.1l-1.8,0.7c-28.4,11.3-51.1,34-62.4,62.4l-0.7,1.8l-14.1,5.8
			c-8.5,3.5-14,11.4-14.4,20.5c-0.4,9.2,4.4,17.5,12.6,21.7l51.7,26.8c-9.2,16.5-11.3,36.4-5.2,54.7c0.3,0.8,0.5,1.6,0.8,2.3
			c0,0,0,0,0,0.1c3.4,9.1,8.6,17.2,15.5,24.1l62.3,62.3l89.5,89.5c0,0,0,0,0,0l35.1,35.1c12.8,12.8,29.9,19.9,48,19.9
			c11.8,0,23.1-3,33.2-8.6l26.8,51.7c4.1,7.8,11.9,12.6,20.6,12.6c0.4,0,0.7,0,1.1,0c9.2-0.4,17-5.9,20.5-14.4l5.8-14.1l1.8-0.7
			c28.4-11.3,51.1-34,62.4-62.4l0.7-1.8l14.1-5.8c8.5-3.5,14-11.4,14.4-20.5C512.4,383,507.6,374.7,499.4,370.4z M170.9,86.4
			l0.1-0.1c0.1-0.1,0.3-0.3,0.4-0.4c0,0,0,0,0-0.1c9-8.7,20.8-13.4,33.3-13.4c12.8,0,24.8,5,33.9,14l18.1,18.1H152.8L170.9,86.4z
			 M21.8,123.8c-1.6-0.8-1.8-2.3-1.8-3.1c0-0.8,0.3-2.2,2-2.9l18.1-7.4c2.5-1,4.5-3,5.5-5.5l2.3-5.8c9.3-23.3,27.9-41.9,51.2-51.2
			l5.8-2.3c2.5-1,4.5-3,5.5-5.5l7.4-18.1c0.7-1.7,2.1-2,2.9-2c0.1,0,0.1,0,0.2,0c0.8,0,2.1,0.3,2.9,1.8l28.5,55l-53.7,53.7
			l-21.8,21.8L21.8,123.8z M76.8,211.9C76.8,211.9,76.8,211.8,76.8,211.9c-0.2-1-0.4-1.8-0.5-2.7c0-0.2-0.1-0.3-0.1-0.5
			c-0.1-0.9-0.2-1.7-0.3-2.6c0-0.2,0-0.3,0-0.5c-0.1-0.9-0.1-1.8-0.2-2.7c0-0.1,0-0.2,0-0.3c0-0.9,0-1.8,0-2.7c0-0.1,0-0.1,0-0.2
			c0-0.9,0.1-1.8,0.2-2.7c0-0.1,0-0.3,0-0.4c0.1-0.9,0.2-1.7,0.3-2.6c0-0.1,0-0.3,0.1-0.4c0.1-0.9,0.3-1.7,0.5-2.6
			c0-0.1,0-0.2,0.1-0.3c0.2-0.9,0.4-1.8,0.7-2.6c0,0,0-0.1,0-0.1c0.3-0.9,0.5-1.7,0.8-2.6c0-0.1,0.1-0.2,0.1-0.4
			c0.3-0.8,0.6-1.6,1-2.4c0.1-0.1,0.1-0.3,0.2-0.4c0.4-0.8,0.7-1.6,1.1-2.4c0.1-0.1,0.1-0.2,0.2-0.3c0.3-0.5,0.5-1,0.8-1.5h153
			c5.5,0,10-4.5,10-10s-4.5-10-10-10H99.1l31.2-31.2l2.5-2.5h143.9l87.4,87.4L76.8,211.9L76.8,211.9z M131.2,276.8l-41.5-41.5
			c-1.1-1.1-2.2-2.3-3.2-3.5h297.6l41.5,41.5c1.1,1.1,2.2,2.3,3.2,3.5H131.2z M151.2,296.8h287.3c0,0,0,0,0,0.1
			c0.2,0.9,0.4,1.8,0.5,2.6c0,0.2,0,0.3,0.1,0.5c0.1,0.9,0.2,1.7,0.3,2.6c0,0.2,0,0.3,0,0.5c0.1,0.9,0.1,1.8,0.2,2.7
			c0,0.1,0,0.2,0,0.3c0,0.9,0,1.8,0,2.7c0,0.1,0,0.1,0,0.2c0,0.9-0.1,1.8-0.2,2.7c0,0.1,0,0.3,0,0.4c-0.1,0.9-0.2,1.7-0.3,2.6
			c0,0.1,0,0.3-0.1,0.4c-0.1,0.9-0.3,1.7-0.5,2.6c0,0.1,0,0.2-0.1,0.3c-0.2,0.9-0.4,1.8-0.7,2.6c0,0,0,0.1,0,0.1
			c-0.3,0.9-0.5,1.7-0.8,2.6c0,0.1-0.1,0.3-0.1,0.4c-0.3,0.8-0.6,1.6-1,2.4c-0.1,0.1-0.1,0.3-0.2,0.4c-0.4,0.8-0.7,1.6-1.1,2.4
			c-0.1,0.1-0.1,0.2-0.2,0.3c-0.3,0.5-0.5,1-0.8,1.5H280.9c-5.5,0-10,4.5-10,10s4.5,10,10,10h135.3l-33.7,33.7H238.6L151.2,296.8z
			 M344.4,422.3c-1,1-2.2,2-3.4,3c-0.1,0-0.1,0.1-0.1,0.1c-8.5,7-19.1,10.8-30.3,10.8c-12.8,0-24.8-5-33.9-14l-18.1-18.1h103.9
			L344.4,422.3C344.4,422.3,344.4,422.3,344.4,422.3z M492,391.3c0,0.8-0.3,2.2-2,2.9l-18.1,7.4c-2.5,1-4.5,3-5.5,5.5l-2.3,5.8
			c-9.3,23.3-27.9,41.9-51.2,51.2l-5.8,2.3c-2.5,1-4.5,3-5.5,5.5l-7.4,18.1c-0.7,1.7-2.1,2-2.9,2c-0.8,0-2.2-0.2-3.1-1.8l-28.5-55
			l33.9-33.9l41.5-41.5l55,28.5C491.8,389,492,390.5,492,391.3z"/>
	</g>
</g>
<g>
	<g>
		<path class="st0" d="M281.8,166.2c-0.1-0.6-0.3-1.3-0.6-1.9c-0.2-0.6-0.6-1.2-0.9-1.7c-0.4-0.6-0.8-1.1-1.2-1.5s-1-0.9-1.5-1.2
			c-0.5-0.4-1.1-0.7-1.7-0.9s-1.2-0.4-1.9-0.6c-1.3-0.3-2.6-0.3-3.9,0c-0.6,0.1-1.3,0.3-1.9,0.6c-0.6,0.2-1.2,0.6-1.7,0.9
			c-0.5,0.4-1.1,0.8-1.5,1.2s-0.9,1-1.2,1.5c-0.4,0.5-0.7,1.1-0.9,1.7c-0.2,0.6-0.4,1.2-0.6,1.9c-0.1,0.6-0.2,1.3-0.2,2
			c0,0.6,0.1,1.3,0.2,1.9s0.3,1.3,0.6,1.9c0.2,0.6,0.6,1.2,0.9,1.7c0.4,0.6,0.8,1.1,1.2,1.5s1,0.9,1.5,1.2c0.6,0.4,1.1,0.7,1.7,0.9
			s1.2,0.4,1.9,0.6c0.6,0.1,1.3,0.2,2,0.2c0.6,0,1.3-0.1,2-0.2c0.6-0.1,1.3-0.3,1.9-0.6c0.6-0.2,1.2-0.6,1.7-0.9
			c0.5-0.4,1.1-0.8,1.5-1.2s0.9-1,1.2-1.5c0.4-0.5,0.7-1.1,0.9-1.7c0.2-0.6,0.4-1.2,0.6-1.9s0.2-1.3,0.2-1.9S282,166.9,281.8,166.2z
			"/>
	</g>
</g>
<g>
	<g>
		<path class="st0" d="M253.3,338.6c-0.1-0.6-0.3-1.3-0.6-1.9c-0.2-0.6-0.6-1.2-0.9-1.7c-0.4-0.5-0.8-1.1-1.2-1.5
			c-0.5-0.5-1-0.9-1.5-1.2s-1.1-0.7-1.7-0.9c-0.6-0.2-1.2-0.5-1.9-0.6c-1.3-0.3-2.6-0.3-3.9,0c-0.6,0.1-1.3,0.3-1.9,0.6
			s-1.2,0.6-1.7,0.9c-0.5,0.4-1.1,0.8-1.5,1.2c-0.5,0.5-0.9,1-1.2,1.5c-0.4,0.5-0.7,1.1-0.9,1.7c-0.2,0.6-0.4,1.2-0.6,1.9
			c-0.1,0.6-0.2,1.3-0.2,2c0,0.6,0.1,1.3,0.2,2s0.3,1.3,0.6,1.9c0.2,0.6,0.6,1.2,0.9,1.7c0.4,0.5,0.8,1.1,1.2,1.5
			c0.5,0.5,1,0.9,1.5,1.2c0.6,0.4,1.1,0.7,1.7,0.9c0.6,0.2,1.2,0.5,1.9,0.6c0.6,0.1,1.3,0.2,2,0.2c0.6,0,1.3-0.1,1.9-0.2
			c0.6-0.1,1.3-0.3,1.9-0.6c0.6-0.2,1.2-0.6,1.7-0.9c0.6-0.4,1.1-0.8,1.5-1.2c0.5-0.5,0.9-1,1.2-1.5c0.4-0.5,0.7-1.1,0.9-1.7
			c0.2-0.6,0.4-1.2,0.6-1.9c0.1-0.6,0.2-1.3,0.2-2S253.5,339.2,253.3,338.6z"/>
	</g>
</g>
</svg>
