<?xml version="1.0" encoding="utf-8"?>
<!-- Generator: Adobe Illustrator 19.2.0, SVG Export Plug-In . SVG Version: 6.00 Build 0)  -->
<svg version="1.1" id="Layer_1" xmlns="http://www.w3.org/2000/svg" xmlns:xlink="http://www.w3.org/1999/xlink" x="0px" y="0px"
	 viewBox="0 0 512 512" style="enable-background:new 0 0 512 512;" xml:space="preserve">
<style type="text/css">
	.st0{fill:#FF7809;}
</style>
<g>
	<g>
		<g>
			<path class="st0" d="M484.7,116.8h-71c11.6-12.6,18.7-29.3,18.7-47.8c0,0,0-2.8,0-3.6c-0.8-22.7-13.2-43-33.1-54.2
				c-20.4-11.4-44.7-11.4-65,0l-32.3,18.2c-20.2,11.4-36.1,28.6-45.9,48.9c-9.8-20.2-25.7-37.4-45.9-48.9l-32.3-18.2
				c-20.3-11.5-44.6-11.5-65,0c-20,11.2-32.4,31.5-33.1,54.2c0,0.8,0,3.6,0,3.6c0,18.4,7.1,35.2,18.7,47.8h-71
				C12.3,116.8,0,129.1,0,144.1V209c0,15.1,12.3,27.3,27.3,27.3h12.5V482c0,15.1,12.3,27.3,27.3,27.3h377.7
				c15.1,0,27.3-12.3,27.3-27.3V236.3h12.5c15.1,0,27.3-12.3,27.3-27.3v-64.8C512,129.1,499.7,116.8,484.7,116.8z M313.1,49.3
				l32.3-18.2c13.3-7.5,29.2-7.5,42.6,0c13,7.3,21,20.4,21.5,35.1c0,0.5,0,2.8,0,2.8c0,26.3-21.4,47.8-47.8,47.8H268
				C271.4,88.7,288.1,63.4,313.1,49.3z M102.4,66.2c0.5-14.7,8.5-27.8,21.5-35.1c6.7-3.8,14-5.6,21.4-5.6c7.3,0,14.6,1.9,21.3,5.6
				l32.3,18.2c25,14.1,41.7,39.4,45.1,67.5h-93.8c-26.3,0-47.8-21.4-47.8-47.8C102.4,69.1,102.4,66.8,102.4,66.2z M204.8,270.9H158
				c-6.3,0-11.4,5.1-11.4,11.4s5.1,11.4,11.4,11.4h46.8v192.9H67.1c-2.5,0-4.6-2-4.6-4.6V236.3h142.2L204.8,270.9L204.8,270.9z
				 M204.8,213.5H27.3c-2.5,0-4.6-2-4.6-4.6v-64.8c0-2.5,2-4.6,4.6-4.6h177.5V213.5z M284.4,486.6h-56.9v-347h56.9V486.6z
				 M449.4,482c0,2.5-2,4.6-4.6,4.6H307.2V293.6h43.4c6.3,0,11.4-5.1,11.4-11.4s-5.1-11.4-11.4-11.4h-43.4v-34.6h142.2L449.4,482
				L449.4,482z M489.2,209c0,2.5-2,4.6-4.6,4.6H307.2v-74h177.5c2.5,0,4.6,2,4.6,4.6L489.2,209L489.2,209z"/>
			<path class="st0" d="M404.6,293.6h1.1c6.3,0,11.4-5.1,11.4-11.4s-5.1-11.4-11.4-11.4h-1.1c-6.3,0-11.4,5.1-11.4,11.4
				C393.2,288.5,398.3,293.6,404.6,293.6z"/>
			<path class="st0" d="M102.8,293.6h1.1c6.3,0,11.4-5.1,11.4-11.4s-5.1-11.4-11.4-11.4h-1.1c-6.3,0-11.4,5.1-11.4,11.4
				S96.5,293.6,102.8,293.6z"/>
		</g>
	</g>
</g>
</svg>
