<?xml version="1.0" encoding="utf-8"?>
<!-- Generator: Adobe Illustrator 19.2.0, SVG Export Plug-In . SVG Version: 6.00 Build 0)  -->
<svg version="1.1" id="Capa_1" xmlns="http://www.w3.org/2000/svg" xmlns:xlink="http://www.w3.org/1999/xlink" x="0px" y="0px"
	 viewBox="0 0 60 60" style="enable-background:new 0 0 60 60;" xml:space="preserve">
<style type="text/css">
	.st0{fill:#FF7809;}
</style>
<g>
	<path class="st0" d="M30,9c0.6,0,1-0.4,1-1V6c0-0.6-0.4-1-1-1s-1,0.4-1,1v2C29,8.6,29.4,9,30,9z"/>
	<path class="st0" d="M30,36c0.6,0,1-0.4,1-1v-2c0-0.6-0.4-1-1-1s-1,0.4-1,1v2C29,35.6,29.4,36,30,36z"/>
	<path class="st0" d="M30,18c0.6,0,1-0.4,1-1v-2c0-0.6-0.4-1-1-1s-1,0.4-1,1v2C29,17.6,29.4,18,30,18z"/>
	<path class="st0" d="M30,45c0.6,0,1-0.4,1-1v-2c0-0.6-0.4-1-1-1s-1,0.4-1,1v2C29,44.6,29.4,45,30,45z"/>
	<path class="st0" d="M30,54c0.6,0,1-0.4,1-1v-2c0-0.6-0.4-1-1-1s-1,0.4-1,1v2C29,53.6,29.4,54,30,54z"/>
	<path class="st0" d="M30,27c0.6,0,1-0.4,1-1v-2c0-0.6-0.4-1-1-1s-1,0.4-1,1v2C29,26.6,29.4,27,30,27z"/>
	<path class="st0" d="M53,0H7C6.4,0,6,0.4,6,1v58c0,0.6,0.4,1,1,1h46c0.6,0,1-0.4,1-1V1C54,0.4,53.6,0,53,0z M52,58H8V2h44V58z"/>
	<path class="st0" d="M15,14h6c0,0,0,0,0,0c2.7,0,4.9-2.2,5-4.9c0-1.3-0.5-2.6-1.5-3.6c-1-1-2.2-1.5-3.5-1.5h-3h-3c0,0,0,0,0,0
		c-2.7,0-4.9,2.2-5,4.9c0,1.3,0.5,2.6,1.5,3.6C12.4,13.4,13.7,14,15,14z M23.1,6.9C23.7,7.5,24,8.3,24,9.1c0,1.6-1.3,2.9-3,2.9
		c0,0,0,0,0,0h-2V6h2C21.8,6,22.5,6.3,23.1,6.9z M15,6C15,6,15,6,15,6h2v6h-2c-0.8,0-1.5-0.3-2.1-0.9C12.3,10.5,12,9.7,12,8.9
		C12,7.3,13.3,6,15,6z"/>
	<path class="st0" d="M15,28h6c0,0,0,0,0,0c2.7,0,4.9-2.2,5-4.9c0-1.3-0.5-2.6-1.5-3.6c-1-1-2.2-1.5-3.5-1.5h-3h-3
		c-2.7,0-5,2.2-5,4.9c0,1.3,0.5,2.6,1.5,3.6C12.4,27.4,13.7,28,15,28z M23.1,20.9c0.6,0.6,0.9,1.3,0.9,2.1c0,1.6-1.3,2.9-3,2.9
		c0,0,0,0,0,0h-2v-6h2C21.8,20,22.5,20.3,23.1,20.9z M15,20C15,20,15,20,15,20h2v6h-2c-0.8,0-1.5-0.3-2.1-0.9
		c-0.6-0.6-0.9-1.3-0.9-2.1C12,21.3,13.3,20,15,20z"/>
	<path class="st0" d="M15,42h6c0,0,0,0,0,0c2.7,0,4.9-2.2,5-4.9c0-1.3-0.5-2.6-1.5-3.6c-1-1-2.2-1.5-3.5-1.5h-3h-3c0,0,0,0,0,0
		c-2.7,0-4.9,2.2-5,4.9c0,1.3,0.5,2.6,1.5,3.6C12.4,41.4,13.7,42,15,42z M23.1,34.9c0.6,0.6,0.9,1.3,0.9,2.1c0,1.6-1.3,2.9-3,2.9
		c0,0,0,0,0,0h-2v-6h2C21.8,34,22.5,34.3,23.1,34.9z M15,34C15,34,15,34,15,34h2v6h-2c-0.8,0-1.5-0.3-2.1-0.9
		c-0.6-0.6-0.9-1.3-0.9-2.1C12,35.3,13.3,34,15,34z"/>
	<path class="st0" d="M15,56h6c0,0,0,0,0,0c2.7,0,4.9-2.2,5-4.9c0-1.3-0.5-2.6-1.5-3.6c-1-1-2.2-1.5-3.5-1.5h-3h-3
		c-2.7,0-5,2.2-5,4.9c0,1.3,0.5,2.6,1.5,3.6C12.4,55.4,13.7,56,15,56z M23.1,48.9c0.6,0.6,0.9,1.3,0.9,2.1c0,1.6-1.3,2.9-3,2.9
		c0,0,0,0,0,0h-2v-6h2C21.8,48,22.5,48.3,23.1,48.9z M15,48C15,48,15,48,15,48h2v6h-2c-0.8,0-1.5-0.3-2.1-0.9
		c-0.6-0.6-0.9-1.3-0.9-2.1C12,49.3,13.3,48,15,48z"/>
	<path class="st0" d="M39,14h6c0,0,0,0,0,0c2.7,0,4.9-2.2,5-4.9c0-1.3-0.5-2.6-1.5-3.6c-1-1-2.2-1.5-3.5-1.5h-3h-3c0,0,0,0,0,0
		c-2.7,0-4.9,2.2-5,4.9c0,1.3,0.5,2.6,1.5,3.6C36.4,13.4,37.7,14,39,14z M47.1,6.9C47.7,7.5,48,8.3,48,9.1c0,1.6-1.3,2.9-3,2.9
		c0,0,0,0,0,0h-2V6h2C45.8,6,46.5,6.3,47.1,6.9z M39,6C39,6,39,6,39,6h2v6h-2c-0.8,0-1.5-0.3-2.1-0.9C36.3,10.5,36,9.7,36,8.9
		C36,7.3,37.3,6,39,6z"/>
	<path class="st0" d="M39,28h6c0,0,0,0,0,0c2.7,0,4.9-2.2,5-4.9c0-1.3-0.5-2.6-1.5-3.6c-1-1-2.2-1.5-3.5-1.5h-3h-3
		c-2.7,0-5,2.2-5,4.9c0,1.3,0.5,2.6,1.5,3.6C36.4,27.4,37.7,28,39,28z M47.1,20.9c0.6,0.6,0.9,1.3,0.9,2.1c0,1.6-1.3,2.9-3,2.9
		c0,0,0,0,0,0h-2v-6h2C45.8,20,46.5,20.3,47.1,20.9z M39,20C39,20,39,20,39,20h2v6h-2c-0.8,0-1.5-0.3-2.1-0.9
		c-0.6-0.6-0.9-1.3-0.9-2.1C36,21.3,37.3,20,39,20z"/>
	<path class="st0" d="M39,42h6c0,0,0,0,0,0c2.7,0,4.9-2.2,5-4.9c0-1.3-0.5-2.6-1.5-3.6c-1-1-2.2-1.5-3.5-1.5h-3h-3c0,0,0,0,0,0
		c-2.7,0-4.9,2.2-5,4.9c0,1.3,0.5,2.6,1.5,3.6C36.4,41.4,37.7,42,39,42z M47.1,34.9c0.6,0.6,0.9,1.3,0.9,2.1c0,1.6-1.3,2.9-3,2.9
		c0,0,0,0,0,0h-2v-6h2C45.8,34,46.5,34.3,47.1,34.9z M39,34C39,34,39,34,39,34h2v6h-2c-0.8,0-1.5-0.3-2.1-0.9
		c-0.6-0.6-0.9-1.3-0.9-2.1C36,35.3,37.3,34,39,34z"/>
	<path class="st0" d="M39,56h6c0,0,0,0,0,0c2.7,0,4.9-2.2,5-4.9c0-1.3-0.5-2.6-1.5-3.6c-1-1-2.2-1.5-3.5-1.5h-3h-3
		c-2.7,0-5,2.2-5,4.9c0,1.3,0.5,2.6,1.5,3.6C36.4,55.4,37.7,56,39,56z M47.1,48.9c0.6,0.6,0.9,1.3,0.9,2.1c0,1.6-1.3,2.9-3,2.9
		c0,0,0,0,0,0h-2v-6h2C45.8,48,46.5,48.3,47.1,48.9z M39,48C39,48,39,48,39,48h2v6h-2c-0.8,0-1.5-0.3-2.1-0.9
		c-0.6-0.6-0.9-1.3-0.9-2.1C36,49.3,37.3,48,39,48z"/>
</g>
</svg>
