<?xml version="1.0" encoding="utf-8"?>
<!-- Generator: Adobe Illustrator 19.2.0, SVG Export Plug-In . SVG Version: 6.00 Build 0)  -->
<svg version="1.1" id="Capa_1" xmlns="http://www.w3.org/2000/svg" xmlns:xlink="http://www.w3.org/1999/xlink" x="0px" y="0px"
	 viewBox="0 0 512 512" style="enable-background:new 0 0 512 512;" xml:space="preserve">
<style type="text/css">
	.st0{fill:#FF7809;}
</style>
<g>
	<g>
		<g>
			<path class="st0" d="M136.5,281.6h238.9c23.5,0,42.7-19.1,42.7-42.7c0-4.7-3.8-8.5-8.5-8.5s-8.5,3.8-8.5,8.5
				c0,14.1-11.5,25.6-25.6,25.6H136.5c-14.1,0-25.6-11.5-25.6-25.6c0-4.7-3.8-8.5-8.5-8.5s-8.5,3.8-8.5,8.5
				C93.9,262.5,113,281.6,136.5,281.6z"/>
			<path class="st0" d="M452.3,287v-31c0-31.1-23.9-56.7-54.3-59.5c2-5.5,3.1-11.4,3.1-17.3c0-28.2-23-51.2-51.2-51.2
				c-3.1,0-6.2,0.3-9.2,0.9c-3.6-19.9-21.1-35-42-35c-23.5,0-42.7,19.1-42.7,42.7c0,23.5,19.1,42.7,42.7,42.7c0,5.9,1,11.6,3,17.1
				H119.5c-32.9,0-59.7,26.8-59.7,59.7v31C20.6,303,0,323.2,0,345.6c0,87,114.8,157.9,256,157.9s256-70.8,256-157.9
				C512,323.2,491.4,303,452.3,287z M315.7,179.2c0-2.5,0.4-5,1.1-8.1c0.7-3-0.2-6.1-2.4-8.2c-2.2-2.1-5.4-2.9-8.3-2
				c-2.8,0.9-5.2,1.3-7.4,1.3c-14.1,0-25.6-11.5-25.6-25.6s11.5-25.6,25.6-25.6c14.1,0,25.6,11.5,25.6,25.6c0,0.5-0.1,1-0.2,1.6
				l-0.2,1.3c-0.3,3,1,6,3.5,7.8c2.5,1.8,5.7,2.1,8.5,0.9c4.5-2,9.2-3.1,13.9-3.1c18.8,0,34.1,15.3,34.1,34.1c0,6-1.6,11.8-4.7,17.1
				h-58.8C317.4,191,315.7,185.2,315.7,179.2z M76.8,256c0-23.5,19.1-42.7,42.7-42.7h273.1c23.5,0,42.7,19.1,42.7,42.7v68.3
				c0,23.5-19.1,42.7-42.7,42.7H119.5c-23.5,0-42.7-19.1-42.7-42.7V256z M59.7,305.6v18.7c0,32.9,26.8,59.7,59.7,59.7h273.1
				c32.9,0,59.7-26.8,59.7-59.7v-18.7c27.3,12.2,42.7,26.5,42.7,40c0,34.3-98.1,72.5-238.9,72.5S17.1,379.9,17.1,345.6
				C17.1,332.1,32.5,317.8,59.7,305.6z M256,486.4c-107.4,0-198.5-42-228.5-99.6C65.8,414,143.3,435.2,256,435.2
				s190.2-21.2,228.5-48.4C454.5,444.4,363.4,486.4,256,486.4z"/>
			<path class="st0" d="M34.1,221.9c18.8,0,34.1-15.3,34.1-34.1S53,153.6,34.1,153.6C15.3,153.6,0,168.9,0,187.7
				S15.3,221.9,34.1,221.9z M34.1,170.7c9.4,0,17.1,7.7,17.1,17.1s-7.7,17.1-17.1,17.1c-9.4,0-17.1-7.7-17.1-17.1
				S24.7,170.7,34.1,170.7z"/>
			<path class="st0" d="M170.7,179.2c23.5,0,42.7-19.1,42.7-42.7c0-23.5-19.1-42.7-42.7-42.7c-23.5,0-42.7,19.1-42.7,42.7
				C128,160.1,147.1,179.2,170.7,179.2z M170.7,110.9c14.1,0,25.6,11.5,25.6,25.6s-11.5,25.6-25.6,25.6s-25.6-11.5-25.6-25.6
				S156.6,110.9,170.7,110.9z"/>
			<path class="st0" d="M221.9,76.8c18.8,0,34.1-15.3,34.1-34.1c0-18.8-15.3-34.1-34.1-34.1s-34.1,15.3-34.1,34.1
				C187.7,61.5,203,76.8,221.9,76.8z M221.9,25.6c9.4,0,17.1,7.7,17.1,17.1c0,9.4-7.7,17.1-17.1,17.1c-9.4,0-17.1-7.7-17.1-17.1
				S212.5,25.6,221.9,25.6z"/>
		</g>
	</g>
</g>
</svg>
