<?xml version="1.0" encoding="utf-8"?>
<!-- Generator: Adobe Illustrator 19.2.0, SVG Export Plug-In . SVG Version: 6.00 Build 0)  -->
<svg version="1.1" id="Capa_1" xmlns="http://www.w3.org/2000/svg" xmlns:xlink="http://www.w3.org/1999/xlink" x="0px" y="0px"
	 viewBox="0 0 57.8 57.8" style="enable-background:new 0 0 57.8 57.8;" xml:space="preserve">
<style type="text/css">
	.st0{fill:#FF7809;}
</style>
<g>
	<g>
		<path class="st0" d="M32.4,5.5c-0.5-0.3-1.1-0.1-1.4,0.3c-0.1,0.1-1.3,2-5.1,2c-0.6,0-1,0.4-1,1s0.4,1,1,1c5,0,6.8-2.9,6.9-3
			C33,6.4,32.9,5.8,32.4,5.5z"/>
		<path class="st0" d="M39.4,27.8h-1v-6c0-0.6-0.4-1-1-1h-1.2c0.1-0.3,0.2-0.6,0.2-1v-16c0-1.5-1.2-3-2.6-3.4
			c-0.5-0.2-3.2-1-6.8,0.5c-3.3,1.4-4.3,3.2-4.5,3.8c-0.7,1.1-1.1,3-1.1,4.1v11c0,0.4,0.1,0.7,0.2,1h-1.2c-0.6,0-1,0.4-1,1v6h-1
			c-0.6,0-1,0.4-1,1v28c0,0.6,0.4,1,1,1h21c0.6,0,1-0.4,1-1v-28C40.4,28.3,40,27.8,39.4,27.8z M23.4,19.8v-11c0-1,0.4-2.5,0.9-3.2
			c0-0.1,0.1-0.2,0.1-0.3c0,0,0.5-1.4,3.4-2.7C29.1,2.2,30.3,2,31.2,2c1.1,0,1.9,0.3,1.9,0.3c0,0,0.1,0,0.1,0
			c0.6,0.1,1.2,0.8,1.2,1.5v16c0,0.5-0.5,1-1,1h-9C23.9,20.8,23.4,20.4,23.4,19.8z M21.4,22.8h3h9h3v5h-15V22.8z M38.4,55.8h-19v-26
			h1h17h1V55.8z"/>
	</g>
</g>
</svg>
