<?xml version="1.0" encoding="utf-8"?>
<!-- Generator: Adobe Illustrator 19.2.0, SVG Export Plug-In . SVG Version: 6.00 Build 0)  -->
<svg version="1.1" id="Layer_1" xmlns="http://www.w3.org/2000/svg" xmlns:xlink="http://www.w3.org/1999/xlink" x="0px" y="0px"
	 viewBox="0 0 512 512" style="enable-background:new 0 0 512 512;" xml:space="preserve">
<style type="text/css">
	.st0{fill:#FF7809;}
</style>
<g>
	<g>
		<path class="st0" d="M120.6,161.8c-5.9-11.9-14.7-18.4-24.6-18.4s-18.7,6.5-24.6,18.4c-4.8,9.5-7.4,21.9-7.4,34.9
			s2.6,25.4,7.4,34.9C77.3,243.5,86,250,96,250s18.7-6.5,24.6-18.4c4.8-9.5,7.4-21.9,7.4-34.9S125.4,171.3,120.6,161.8z
			 M101.5,222.1c-2.7,5.5-5.2,6.6-5.5,6.6s-2.8-1.1-5.5-6.6c-3.2-6.5-5.1-15.8-5.1-25.4c0-9.6,1.9-18.9,5.1-25.4
			c2.7-5.5,5.2-6.6,5.5-6.6s2.8,1.1,5.5,6.6c3.2,6.5,5.1,15.8,5.1,25.4S104.8,215.6,101.5,222.1z"/>
	</g>
</g>
<g>
	<g>
		<path class="st0" d="M324.6,186h-67c-5.9,0-10.7,4.8-10.7,10.7s4.8,10.7,10.7,10.7h67c5.9,0,10.7-4.8,10.7-10.7
			S330.5,186,324.6,186z"/>
	</g>
</g>
<g>
	<g>
		<path class="st0" d="M425.1,186h-67c-5.9,0-10.7,4.8-10.7,10.7s4.8,10.7,10.7,10.7h67c5.9,0,10.7-4.8,10.7-10.7S431,186,425.1,186
			z"/>
	</g>
</g>
<g>
	<g>
		<path class="st0" d="M485.9,71.3c-18-36-42.8-55.9-69.9-55.9L85.3,16.4C62.5,21,41.7,40,26.1,71.3C9.3,104.9,0,149.5,0,196.7
			c0,47.2,9.3,91.8,26.1,125.5c15.6,31.2,36.3,50.3,59.2,54.8l85.3,1.1v103.7l43.5,14.5l20.5-10.2l21.3,10.7l21.3-10.7l21.3,10.7
			L320,486l21.3,10.7l21.3-10.7l21.3,10.7l21.3-10.7l21.3,10.7L448,486l20.5,10.2l43.5-14.5v-285C512,149.5,502.7,104.9,485.9,71.3z
			 M170.7,356.7H142c8.8-8.9,16.9-20.5,23.9-34.5c1.7-3.3,3.3-6.8,4.8-10.3V356.7z M146.8,312.6c-14,28-32.5,44.1-50.8,44.1
			s-36.8-16.1-50.8-44.1c-15.4-30.8-23.9-71.9-23.9-115.9c0-44,8.5-85.1,23.9-115.9c14-28,32.5-44.1,50.8-44.1s36.8,16.1,50.8,44.1
			c15.4,30.8,23.9,71.9,23.9,115.9C170.7,240.7,162.2,281.8,146.8,312.6z M490.7,466.3l-20.5,6.8L448,462.1l-21.3,10.7l-21.3-10.7
			L384,472.8l-21.3-10.7l-21.3,10.7L320,462.1l-21.3,10.7l-21.3-10.7L256,472.8l-21.3-10.7l-22.2,11.1l-20.5-6.8v-259h32
			c5.9,0,10.7-4.8,10.7-10.7S229.9,186,224,186h-32.2c-1.3-43.2-10.4-83.6-26-114.8c-7-14.1-15.1-25.6-23.9-34.6h274
			c18.3,0,36.8,16.1,50.8,44.1c14.1,28.3,22.4,65.3,23.7,105.2h-31.8c-5.9,0-10.7,4.8-10.7,10.7s4.8,10.7,10.7,10.7h32V466.3z"/>
	</g>
</g>
</svg>
