<?xml version="1.0" encoding="utf-8"?>
<!-- Generator: Adobe Illustrator 19.2.0, SVG Export Plug-In . SVG Version: 6.00 Build 0)  -->
<svg version="1.1" id="Layer_1" xmlns="http://www.w3.org/2000/svg" xmlns:xlink="http://www.w3.org/1999/xlink" x="0px" y="0px"
	 viewBox="0 0 352.1 352.1" style="enable-background:new 0 0 352.1 352.1;" xml:space="preserve">
<style type="text/css">
	.st0{fill:#FF7809;}
</style>
<g>
	<path class="st0" d="M275.1,197.6c-42.5,0-77,34.5-77,77c0,42.5,34.5,77,77,77s77-34.5,77-77C352.1,232.1,317.6,197.6,275.1,197.6z
		 M275.1,336.6c-34.2,0-62-27.8-62-62s27.8-62,62-62s62,27.8,62,62C337.1,308.8,309.3,336.6,275.1,336.6z"/>
	<path class="st0" d="M298.6,236.6c-3.5-2.2-8.1-1.1-10.3,2.4l-39,63.3c-2.2,3.5-1.1,8.1,2.4,10.3c1.2,0.8,2.6,1.1,3.9,1.1
		c2.5,0,5-1.3,6.4-3.6l39-63.3C303.2,243.3,302.1,238.7,298.6,236.6L298.6,236.6z"/>
	<path class="st0" d="M61,298.7l-1.1-0.7c-6.2-3.9-10.6-10-12.2-17.2c-1.7-7.2-0.4-14.5,3.5-20.8c2.2-3.5,1.1-8.1-2.4-10.3
		c-3.5-2.2-8.1-1.1-10.3,2.4c-6,9.6-7.9,21-5.4,32.1s9.2,20.5,18.9,26.5l1.1,0.7c1.2,0.8,2.6,1.1,4,1.1c2.5,0,4.9-1.2,6.4-3.5
		C65.6,305.5,64.5,300.9,61,298.7z"/>
	<path class="st0" d="M214,51.6l1.1,0.7c12.9,8,16.8,25.1,8.7,37.9c-2.2,3.5-1.1,8.1,2.4,10.3c1.2,0.8,2.6,1.1,4,1.1
		c2.5,0,4.9-1.2,6.4-3.5c12.4-19.9,6.4-46.2-13.5-58.6l-1.1-0.7c-3.5-2.2-8.1-1.1-10.3,2.4S210.5,49.4,214,51.6L214,51.6z"/>
	<path class="st0" d="M201.1,215C201.1,215,201.1,215,201.1,215l62.5-99.8c10.5-16.8,13.9-36.8,9.4-56.2
		c-4.5-19.4-16.2-35.8-33-46.4l-1.1-0.7C227,4.5,213.4,0.5,199.5,0.5c-25.8,0-49.4,13.1-63.1,34.9l-125,199.7
		C0.8,252-2.5,272,1.9,291.3s16.2,35.8,33,46.4l1.1,0.7c11.9,7.4,25.5,11.3,39.4,11.3c25.8,0,49.4-13.1,63.1-34.9L201.1,215
		C201.1,215,201.1,215,201.1,215L201.1,215z M149.1,43.4C160,26,178.8,15.5,199.5,15.5c11.1,0,22,3.1,31.4,9.1l1.1,0.7
		c13.4,8.4,22.8,21.6,26.4,37c3.6,15.5,0.9,31.4-7.5,44.8l-58.5,93.5L90.6,136.9L149.1,43.4z M125.9,306.9
		c-10.9,17.5-29.8,27.9-50.4,27.9c-11.1,0-22-3.1-31.5-9.1l-1.1-0.7c-13.5-8.4-22.8-21.6-26.4-37c-3.6-15.5-0.9-31.4,7.5-44.8
		l58.5-93.5l101.8,63.7C184.4,213.4,125.9,306.9,125.9,306.9z"/>
</g>
</svg>
