<?xml version="1.0" encoding="utf-8"?>
<!-- Generator: Adobe Illustrator 19.2.0, SVG Export Plug-In . SVG Version: 6.00 Build 0)  -->
<svg version="1.1" id="Capa_1" xmlns="http://www.w3.org/2000/svg" xmlns:xlink="http://www.w3.org/1999/xlink" x="0px" y="0px"
	 viewBox="0 0 442.1 442.1" style="enable-background:new 0 0 442.1 442.1;" xml:space="preserve">
<style type="text/css">
	.st0{fill:#FF7809;}
</style>
<g>
	<path class="st0" d="M310.5,123.4c-12.6-8.1-27.2-12.3-42.1-12.3h-15.3V98.4H268c2.1,0,4.1-0.9,5.5-2.5c1.4-1.6,2.1-3.7,1.9-5.8
		l-7.9-83.4C267.1,2.9,263.9,0,260,0h-78c-3.9,0-7.1,2.9-7.5,6.8l-7.9,83.4c-0.2,2.1,0.5,4.2,1.9,5.8c1.4,1.6,3.4,2.5,5.5,2.5H189
		v12.7h-15.3c-15,0-29.5,4.3-42.1,12.3c-22.6,14.4-36,39.1-36,65.8v245.3c0,4.1,3.4,7.5,7.5,7.5h236c4.1,0,7.5-3.4,7.5-7.5V189.3
		C346.5,162.5,333.1,137.9,310.5,123.4z M188.9,15h64.4l6.5,68.4h-77.4L188.9,15z M204,98.4h34.1v12.7H204V98.4z M331.5,427.1h-221
		V189.3c0-21.7,10.9-41.5,29.1-53.2c10.2-6.5,22-10,34.1-10h94.6c12.1,0,23.9,3.4,34.1,10c18.2,11.7,29.1,31.6,29.1,53.2
		L331.5,427.1L331.5,427.1z"/>
	<path class="st0" d="M286.6,193.1H155.5c-12.5,0-22.7,10.2-22.7,22.7v121.6c0,12.5,10.2,22.7,22.7,22.7h131.1
		c12.5,0,22.7-10.2,22.7-22.7V215.8C309.3,203.3,299.1,193.1,286.6,193.1z M294.3,337.4c0,4.2-3.4,7.7-7.7,7.7H155.5
		c-4.2,0-7.7-3.4-7.7-7.7V215.8c0-4.2,3.4-7.7,7.7-7.7h131.1c4.2,0,7.7,3.4,7.7,7.7V337.4z"/>
	<path class="st0" d="M254.3,215.1c-14.3,0-26.8,9.7-30.4,23.5l-2.9,11.1l-2.9-11.1c-3.6-13.8-16.1-23.5-30.4-23.5
		c-8.4,0-16.3,3.3-22.2,9.2c-5.9,5.9-9.2,13.8-9.2,22.2c0,14.3,9.7,26.8,23.5,30.4l11.4,3c-0.6,2.2-0.9,4.5-0.9,6.9
		c0,3.5,0.6,6.8,1.8,9.8l-10.9,18.3c-1.6,2.7-1.4,6.2,0.7,8.6l10,12c1.5,1.8,3.6,2.7,5.8,2.7c1.7,0,3.4-0.6,4.8-1.7
		c3.2-2.7,3.6-7.4,1-10.6l-6.6-7.9l5.2-8.8c4.5,3.1,9.9,5,15.8,5h6c5.9,0,11.3-1.9,15.8-5l5.2,8.8l-6.6,7.9c-2.7,3.2-2.2,7.9,1,10.6
		c1.4,1.2,3.1,1.7,4.8,1.7c2.1,0,4.3-0.9,5.8-2.7l10-12c2-2.4,2.3-5.9,0.7-8.6l-10.9-18.3c1.2-3.1,1.8-6.4,1.8-9.8
		c0-2.4-0.3-4.7-0.9-6.9l11.5-3c13.8-3.6,23.5-16.1,23.5-30.4c0-8.4-3.3-16.3-9.2-22.2C270.5,218.3,262.6,215.1,254.3,215.1z
		 M171.5,246.4c0-4.4,1.7-8.5,4.8-11.6c3.1-3.1,7.2-4.8,11.6-4.8c7.5,0,14,5,15.8,12.3l4.8,18.5c-3.3,1.2-6.3,3.1-8.9,5.5l-15.8-4.1
		C176.5,260.4,171.5,253.9,171.5,246.4z M224,299.1h-6c-6.9,0-12.5-5.6-12.5-12.5s5.6-12.5,12.5-12.5h6c6.9,0,12.5,5.6,12.5,12.5
		S230.9,299.1,224,299.1z M258.4,262.3l-15.8,4.1c-2.6-2.4-5.6-4.2-8.9-5.5l4.8-18.5c1.9-7.2,8.4-12.3,15.8-12.3
		c4.4,0,8.5,1.7,11.6,4.8c3.1,3.1,4.8,7.2,4.8,11.6C270.6,253.9,265.6,260.4,258.4,262.3z"/>
	<path class="st0" d="M228,46.3c-2.6-6.2-11.7-6-14,0.3c-1.1,3.1,0,6.6,2.6,8.5c2.6,1.9,6.2,1.9,8.8,0.1
		C228.2,53.3,229.3,49.5,228,46.3C227.8,45.9,228.2,46.8,228,46.3z"/>
	<path class="st0" d="M221,21.7c-15.2,0-27.5,12.3-27.5,27.5s12.3,27.5,27.5,27.5s27.5-12.3,27.5-27.5S236.2,21.7,221,21.7z
		 M221,61.7c-6.9,0-12.5-5.6-12.5-12.5s5.6-12.5,12.5-12.5s12.5,5.6,12.5,12.5S227.9,61.7,221,61.7z"/>
</g>
</svg>
