<?xml version="1.0" encoding="utf-8"?>
<!-- Generator: Adobe Illustrator 19.2.0, SVG Export Plug-In . SVG Version: 6.00 Build 0)  -->
<svg version="1.1" id="Capa_1" xmlns="http://www.w3.org/2000/svg" xmlns:xlink="http://www.w3.org/1999/xlink" x="0px" y="0px"
	 viewBox="0 0 512 512" style="enable-background:new 0 0 512 512;" xml:space="preserve">
<style type="text/css">
	.st0{fill:#FF7809;}
</style>
<g>
	<g>
		<path class="st0" d="M473.6,108.3H384V68.9c0-38-30.9-68.9-68.9-68.9H196.9c-38,0-68.9,30.9-68.9,68.9v39.4H38.4
			C17.2,108.3,0,125.5,0,146.7v61c0,18.1,12.6,33.3,29.5,37.4v237.4c0,16.3,13.3,29.5,29.5,29.5h393.8c16.3,0,29.5-13.3,29.5-29.5
			V245.1c16.9-4,29.5-19.2,29.5-37.4v-61C512,125.5,494.8,108.3,473.6,108.3z M147.7,68.9c0-27.1,22.1-49.2,49.2-49.2h118.2
			c27.1,0,49.2,22.1,49.2,49.2v39.4h-19.7V68.9c0-16.3-13.3-29.5-29.5-29.5H196.9c-16.3,0-29.5,13.3-29.5,29.5v39.4h-19.7
			L147.7,68.9L147.7,68.9z M324.9,68.9v39.4H187.1V68.9c0-5.4,4.4-9.8,9.8-9.8h118.2C320.5,59.1,324.9,63.5,324.9,68.9z
			 M462.8,482.5c0,5.4-4.4,9.8-9.8,9.8H59.1c-5.4,0-9.8-4.4-9.8-9.8v-9.8h49.2c5.4,0,9.8-4.4,9.8-9.8s-4.4-9.8-9.8-9.8H49.2V246.2
			h39.4v29.5c0,5.4,4.4,9.8,9.8,9.8h59.1c5.4,0,9.8-4.4,9.8-9.8v-29.5h177.2v29.5c0,5.4,4.4,9.8,9.8,9.8h59.1c5.4,0,9.8-4.4,9.8-9.8
			v-29.5h39.4L462.8,482.5L462.8,482.5z M108.3,265.8v-59.1h39.4v59.1H108.3z M364.3,265.8v-59.1h39.4v59.1H364.3z M492.3,207.8
			c0,10.3-8.4,18.7-18.7,18.7h-1h-49.2v-29.5c0-5.4-4.4-9.8-9.8-9.8h-59.1c-5.4,0-9.8,4.4-9.8,9.8v29.5H167.4v-29.5
			c0-5.4-4.4-9.8-9.8-9.8H98.5c-5.4,0-9.8,4.4-9.8,9.8v29.5H39.4h-1c-10.3,0-18.7-8.4-18.7-18.7v-61c0-10.3,8.4-18.7,18.7-18.7
			h435.2c10.3,0,18.7,8.4,18.7,18.7V207.8z"/>
	</g>
</g>
<g>
	<g>
		<path class="st0" d="M315.1,339.7h-29.5v-29.5c0-5.4-4.4-9.8-9.8-9.8h-39.4c-5.4,0-9.8,4.4-9.8,9.8v29.5h-29.5
			c-5.4,0-9.8,4.4-9.8,9.8v39.4c0,5.4,4.4,9.8,9.8,9.8h29.5v29.5c0,5.4,4.4,9.8,9.8,9.8h39.4c5.4,0,9.8-4.4,9.8-9.8v-29.5h29.5
			c5.4,0,9.8-4.4,9.8-9.8v-39.4C324.9,344.1,320.5,339.7,315.1,339.7z M305.2,379.1h-29.5c-5.4,0-9.8,4.4-9.8,9.8v29.5h-19.7v-29.5
			c0-5.4-4.4-9.8-9.8-9.8h-29.5v-19.7h29.5c5.4,0,9.8-4.4,9.8-9.8V320h19.7v29.5c0,5.4,4.4,9.8,9.8,9.8h29.5V379.1z"/>
	</g>
</g>
<g>
	<g>
		<path class="st0" d="M135,455.8c-1.8-1.8-4.4-2.9-7-2.9s-5.1,1.1-7,2.9s-2.9,4.4-2.9,7s1.1,5.1,2.9,7c1.8,1.8,4.4,2.9,7,2.9
			c2.6,0,5.1-1.1,7-2.9c1.8-1.8,2.9-4.4,2.9-7S136.8,457.6,135,455.8z"/>
	</g>
</g>
</svg>
