<?xml version="1.0" encoding="utf-8"?>
<!-- Generator: Adobe Illustrator 19.2.0, SVG Export Plug-In . SVG Version: 6.00 Build 0)  -->
<svg version="1.1" id="Capa_1" xmlns="http://www.w3.org/2000/svg" xmlns:xlink="http://www.w3.org/1999/xlink" x="0px" y="0px"
	 viewBox="0 0 512 512" style="enable-background:new 0 0 512 512;" xml:space="preserve">
<style type="text/css">
	.st0{fill:#FF7809;}
</style>
<g>
	<g>
		<path class="st0" d="M427.4,239.4c-14.1-22.3-29.2-66.5-33.7-84.3c-5.1-17.7-14.5-63.8-13.5-89.7c0.4-6.6-2.5-12.8-7.9-16.6
			c-5.6-4-13.1-4.8-19.8-1.9c-36,17.2-126.2,47.8-163.9,57.9c-35.5,9.5-129.8,29.5-170.9,32.8C11,138,5.3,141.8,2.2,147.8
			c-3.2,6.2-2.9,13.5,0.9,19.6c13.2,20,27.7,61.3,34.2,84.2c5.1,17.7,14.5,63.8,13.5,89.7c-0.4,6.6,2.5,12.8,7.9,16.6
			c3.4,2.4,7.4,3.6,11.5,3.6c2.8,0,5.6-0.6,8.3-1.7c36-17.2,126.2-47.8,163.9-57.9c35.6-9.5,129.8-29.5,170.3-32.8
			c6.7-0.4,12.5-4.3,15.5-10.2C431.5,252.8,431.2,245.5,427.4,239.4z M413.6,251.4c-0.4,0.8-1.1,1.3-2.1,1.3
			c-41.5,3.4-137.3,23.6-173.4,33.3c-38.2,10.3-130,41.4-166.4,58.8c-1.7,0.8-3.1-0.1-3.5-0.3c-1.1-0.8-1-1.7-1-2.2
			c1.2-28.4-8.6-76-14.1-95.2c-5.9-20.6-21-65.6-36.2-88.6c-0.9-1.5-0.4-2.8-0.2-3.2c0.4-0.8,1.1-1.2,1.9-1.3c0,0,0.1,0,0.1,0
			c42-3.4,137.9-23.6,173.9-33.3c38.2-10.3,130-41.4,166.4-58.8c0.5-0.2,1-0.3,1.5-0.3c1,0,1.8,0.4,2,0.6c1.1,0.8,1,1.7,1,2.2
			c-1.2,28.4,8.6,76,14,95c4.9,19.1,20.4,64.7,35.7,88.8C414.3,249.7,413.8,251,413.6,251.4z"/>
	</g>
</g>
<g>
	<g>
		<path class="st0" d="M102.8,176.1c-1.2-4.4-5.8-7-10.2-5.8c-5.9,1.6-17.9,0.7-24.1-0.2c-0.6-0.1-1.2-0.1-1.8-0.1
			c-6.7,0.4-12.5,4.3-15.5,10.2c-3.2,6.2-2.9,13.5,0.8,19.4c0.1,0.2,0.3,0.4,0.4,0.6c0,0.1,4.7,6.5,3.9,13.5
			c-0.5,4.5,2.8,8.6,7.3,9.1c0.3,0,0.6,0,0.9,0c4.2,0,7.8-3.2,8.2-7.4c1.3-12.3-5.1-22.3-6.8-24.7c-0.8-1.4-0.2-2.6-0.1-3
			c0.3-0.6,0.8-1,1.4-1.2c4.7,0.6,19.8,2.4,29.8-0.4C101.5,185,104,180.5,102.8,176.1z"/>
	</g>
</g>
<g>
	<g>
		<path class="st0" d="M399.5,175.2c-10.9-27.3-44.4-75.5-93.6-62.2c-4.4,1.2-7,5.7-5.8,10.1c1.2,4.4,5.7,7,10.1,5.8
			c47.2-12.8,72.8,49.7,73.9,52.4c1.3,3.2,4.4,5.2,7.7,5.2c1,0,2-0.2,3-0.6C399.1,184.3,401.2,179.5,399.5,175.2z"/>
	</g>
</g>
<g>
	<g>
		<path class="st0" d="M278.4,234.4c-4.3-1.6-9,0.7-10.6,5c-10.7,29.6-77.6,60.1-102.5,69.4c-4.3,1.6-6.5,6.4-4.9,10.6
			c1.2,3.3,4.4,5.4,7.7,5.4c1,0,1.9-0.2,2.9-0.5c9.9-3.7,97.1-37.3,112.3-79.3C284.9,240.7,282.7,236,278.4,234.4z"/>
	</g>
</g>
<g>
	<g>
		<path class="st0" d="M510.2,253.3c-2.9-6-8.6-10.1-15.3-11c-0.2,0-0.4,0-0.6-0.1c-17.5-1.1-45.8-5.9-71.3-10.4
			c-4.5-0.8-8.8,2.2-9.6,6.7c-0.8,4.5,2.2,8.8,6.7,9.6c25.7,4.5,54.5,9.3,72.7,10.6c1.5,0.3,2.1,1.2,2.4,1.7
			c0.3,0.6,0.5,1.6-0.2,2.8c-15.2,24.5-30.4,70.3-35.1,89.4c-5.2,20.6-14.6,67-13.5,95.1c0.1,0.9-0.3,1.6-0.9,2.1
			c-0.4,0.3-1.4,0.8-2.7,0.3c-38.2-18.3-131-48.8-166.8-58.4c-36-9.1-131.7-28.8-173.4-32.1c-1.6-0.2-2.3-1.2-2.6-1.7
			c-0.3-0.6-0.5-1.6,0.2-2.8c0.1-0.2,0.2-0.4,0.4-0.6c0.4-0.9,1-1.7,1.5-2.6c0.8-1.3,1.7-2.7,2.3-4c2-4.1,0.4-9.1-3.7-11.1
			c-4.1-2-9-0.4-11.1,3.7c-0.4,0.9-1,1.8-1.5,2.6c-0.8,1.2-1.5,2.4-2.1,3.7c-3.3,5.6-3.7,12.4-0.9,18.3c2.9,6,8.6,10.1,15.7,11.1
			c39.8,3.2,134.8,22.5,171,31.7c35.2,9.5,126.4,39.5,164.2,57.5c2.6,1.1,5.3,1.6,7.9,1.6c3.9,0,7.8-1.2,11.1-3.6
			c5.4-3.8,8.3-10.1,7.9-16.5c-1-24.2,7.2-67.2,13-90.2c5.3-21.3,20.2-63.8,33.2-84.7C512.6,266.2,513,259.2,510.2,253.3z"/>
	</g>
</g>
<g>
	<g>
		<path class="st0" d="M420.9,277.7c-4.4-1.2-8.9,1.4-10.1,5.9c-1.2,4.4,1.4,8.9,5.9,10.1c47.8,12.8,38.5,79.4,38,82.2
			c-0.7,4.5,2.4,8.7,7,9.4c0.4,0.1,0.8,0.1,1.2,0.1c4,0,7.5-2.9,8.2-7C475.4,349.4,470.6,291,420.9,277.7z"/>
	</g>
</g>
<g>
	<g>
		<path class="st0" d="M336.4,368.5c-3-3.5-8.2-3.8-11.7-0.9c-23.8,20.5-97,13.1-123.2,8.6c-4.5-0.8-8.8,2.2-9.6,6.7
			c-0.8,4.5,2.2,8.8,6.7,9.6c5.4,0.9,33.2,5.5,63.3,5.5c27.7,0,57.3-3.8,73.6-17.9C339,377.2,339.3,371.9,336.4,368.5z"/>
	</g>
</g>
</svg>
