<?xml version="1.0" encoding="utf-8"?>
<!-- Generator: Adobe Illustrator 19.2.0, SVG Export Plug-In . SVG Version: 6.00 Build 0)  -->
<svg version="1.1" id="Capa_1" xmlns="http://www.w3.org/2000/svg" xmlns:xlink="http://www.w3.org/1999/xlink" x="0px" y="0px"
	 viewBox="0 0 201.9 201.9" style="enable-background:new 0 0 201.9 201.9;" xml:space="preserve">
<style type="text/css">
	.st0{fill:#FF7809;}
</style>
<path class="st0" d="M68.1,201.9c-3.2,0-6.2-1.2-8.4-3.4c-2.1-2.1-3.3-4.9-3.4-7.8c-3-0.1-5.8-1.3-7.8-3.4c-2.1-2.1-3.3-4.9-3.4-7.8
	c-3-0.1-5.8-1.3-7.8-3.4c-2.1-2.1-3.3-4.9-3.4-7.8c-3-0.1-5.8-1.3-7.8-3.4c-2.1-2.1-3.3-4.9-3.4-7.8c-3-0.1-5.8-1.3-7.8-3.4
	c-2.1-2.1-3.3-4.9-3.4-7.8c-3-0.1-5.8-1.3-7.8-3.4c-4.8-4.8-4.5-13,0.7-18.2c0.1-0.1,0.1-0.1,0.2-0.2c0.1-0.1,0.1-0.1,0.2-0.2
	l85.3-85.3c0,0,0,0,0,0l33.2-33.2c0.2-0.2,0.3-0.3,0.5-0.4c0.1-0.2,0.3-0.3,0.4-0.5c2.5-2.5,5.7-4,9.1-4.1c3.5-0.2,6.7,1,9.1,3.4
	c2.1,2.1,3.3,4.9,3.4,7.8c3,0.1,5.8,1.3,7.8,3.4s3.3,4.9,3.4,7.8c3,0.1,5.8,1.3,7.8,3.4c2.1,2.1,3.3,4.9,3.4,7.8
	c3,0.1,5.8,1.3,7.8,3.4s3.3,4.9,3.4,7.8c3,0.1,5.8,1.3,7.8,3.4c2.1,2.1,3.3,4.9,3.4,7.8c3,0.1,5.8,1.3,7.8,3.4
	c4.8,4.8,4.5,13-0.7,18.2c-0.2,0.2-0.5,0.5-0.7,0.7c-0.1,0.1-0.1,0.1-0.2,0.2L78.3,197.3c-0.1,0.2-0.3,0.3-0.4,0.5
	c-2.5,2.5-5.7,4-9.1,4.1C68.5,201.9,68.3,201.9,68.1,201.9z M61.3,189.3c-0.2,2.2,0.5,4.2,1.9,5.6c1.4,1.4,3.3,2.1,5.3,2
	c2.2-0.1,4.2-1.1,5.8-2.7c0.1-0.1,0.2-0.2,0.2-0.3l0.1-0.1c0,0,0.1-0.1,0.1-0.1l83.5-83.5l-9-9L61.3,189.3z M50,178
	c-0.2,2.2,0.5,4.2,1.9,5.7c1.5,1.5,3.7,2.2,6,1.9l87.8-87.8L138,90L50,178z M38.8,166.7c-0.2,2.2,0.5,4.2,1.9,5.7
	c1.5,1.5,3.7,2.2,6,1.9l87.8-87.8l-7.7-7.7L38.8,166.7z M27.6,155.4c-0.2,2.2,0.4,4.3,1.9,5.8c1.5,1.5,3.6,2.2,5.9,1.9l87.9-87.9
	l-7.7-7.7L27.6,155.4z M16.3,144.1c-0.3,2.2,0.4,4.3,1.9,5.8c1.5,1.5,3.6,2.2,5.9,1.9L112,63.9l-7.7-7.7L16.3,144.1z M91.6,43.6
	L8,127.2c0,0-0.1,0.1-0.1,0.1c0,0-0.1,0.1-0.1,0.1l-0.2,0.1c-3.3,3.3-3.6,8.3-0.7,11.1c1.5,1.5,3.6,2.2,5.8,1.9l87.9-87.9L91.6,43.6
	z M152.8,97.8l9,9l31.6-31.6c0.1-0.1,0.1-0.1,0.2-0.2c0.2-0.2,0.4-0.3,0.6-0.5c3.3-3.3,3.6-8.3,0.7-11.2c-1.4-1.4-3.4-2.1-5.6-1.9
	L152.8,97.8z M141.6,86.5l7.7,7.7L185.6,58c0.3-2.3-0.4-4.5-1.9-6c-1.5-1.5-3.5-2.1-5.7-1.9L141.6,86.5z M130.3,75.2L138,83
	l36.3-36.3c0.3-2.3-0.4-4.4-1.9-6c-1.5-1.5-3.5-2.1-5.7-1.9L130.3,75.2z M119,63.9l7.7,7.7l36.3-36.3c0.3-2.3-0.4-4.4-1.9-5.9
	c-1.5-1.5-3.5-2.2-5.8-1.9L119,63.9z M107.8,52.7l7.7,7.7l36.3-36.3c0.3-2.3-0.4-4.4-1.9-5.9c-1.5-1.5-3.6-2.2-5.8-1.9L107.8,52.7z
	 M95.2,40.1l9.1,9.1l36.4-36.4c0.3-2.2-0.4-4.3-1.9-5.8c-1.4-1.4-3.2-2.1-5.3-2c-2.2,0.1-4.2,1-5.8,2.7c-0.1,0.1-0.2,0.2-0.2,0.3
	l-0.1,0.1c-0.1,0.1-0.2,0.2-0.3,0.3c-0.1,0.1-0.2,0.2-0.3,0.3L95.2,40.1z"/>
</svg>
