<?xml version="1.0" encoding="utf-8"?>
<!-- Generator: Adobe Illustrator 19.2.0, SVG Export Plug-In . SVG Version: 6.00 Build 0)  -->
<svg version="1.1" id="Layer_1" xmlns="http://www.w3.org/2000/svg" xmlns:xlink="http://www.w3.org/1999/xlink" x="0px" y="0px"
	 viewBox="0 0 512 512" style="enable-background:new 0 0 512 512;" xml:space="preserve">
<style type="text/css">
	.st0{fill:#FF7809;}
</style>
<g>
	<g>
		<path class="st0" d="M256,30.4c-50.9,0-92.3,41.4-92.3,92.3h15.2c0-42.5,34.6-77.1,77.1-77.1c42.5,0,77.1,34.6,77.1,77.1h15.2
			C348.3,71.8,306.9,30.4,256,30.4z"/>
	</g>
</g>
<g>
	<g>
		<rect x="298.1" y="427.3" class="st0" width="15.2" height="15.2"/>
	</g>
</g>
<g>
	<g>
		<rect x="298.1" y="336.1" class="st0" width="15.2" height="15.2"/>
	</g>
</g>
<g>
	<g>
		<rect x="298.1" y="396.9" class="st0" width="15.2" height="15.2"/>
	</g>
</g>
<g>
	<g>
		<rect x="298.1" y="305.7" class="st0" width="15.2" height="15.2"/>
	</g>
</g>
<g>
	<g>
		<rect x="298.1" y="366.5" class="st0" width="15.2" height="15.2"/>
	</g>
</g>
<g>
	<g>
		<rect x="298.1" y="184" class="st0" width="15.2" height="15.2"/>
	</g>
</g>
<g>
	<g>
		<rect x="298.1" y="214.4" class="st0" width="15.2" height="15.2"/>
	</g>
</g>
<g>
	<g>
		<rect x="298.1" y="275.3" class="st0" width="15.2" height="15.2"/>
	</g>
</g>
<g>
	<g>
		<rect x="298.1" y="244.8" class="st0" width="15.2" height="15.2"/>
	</g>
</g>
<g>
	<g>
		<path class="st0" d="M380.2,230.7c0-12.4-6-23.5-15.2-30.4c9.2-6.9,15.2-18,15.2-30.4c0-3.7-0.5-7.2-1.5-10.6v-36.5
			C378.7,55,323.6,0,256,0S133.3,55,133.3,122.7v36.5c-1,3.4-1.5,6.9-1.5,10.6c0,12.4,6,23.5,15.2,30.4c-9.2,6.9-15.2,18-15.2,30.4
			s6,23.5,15.2,30.4c-9.2,6.9-15.2,18-15.2,30.4c0,12.4,6,23.5,15.2,30.4c-9.2,6.9-15.2,18-15.2,30.4s6,23.5,15.2,30.4
			c-9.2,6.9-15.2,18-15.2,30.4s6,23.5,15.2,30.4c-9.2,6.9-15.2,18-15.2,30.4c0,21,17.1,38,38,38h172.4c21,0,38-17.1,38-38
			c0-12.4-6-23.5-15.2-30.4c9.2-6.9,15.2-18,15.2-30.4s-6-23.5-15.2-30.4c9.2-6.9,15.2-18,15.2-30.4s-6-23.5-15.2-30.4
			c9.2-6.9,15.2-18,15.2-30.4s-6-23.5-15.2-30.4C374.2,254.1,380.2,243.1,380.2,230.7z M343.7,192.6v-45.5
			c11.9,0.8,21.3,10.7,21.3,22.8S355.6,191.8,343.7,192.6z M148.5,122.7c0-59.3,48.2-107.5,107.5-107.5s107.5,48.2,107.5,107.5v15.7
			c-5.7-3.9-12.5-6.2-19.8-6.5v0h-1.5h-12.5h-1.2v0.8L306.3,148l-18-16.2h-5.5h-15.2h-97.8c-7.9,0-15.2,2.4-21.3,6.5L148.5,122.7
			L148.5,122.7z M328.5,151.1v41.5v15.2v45.6v15.2v45.6v15.2v45.6v15.2V436v15.2v7.1h-45.6v-7.1V436v-45.6v-15.2v-45.6v-15.2v-45.6
			v-15.2v-45.6v-15.2v-45.3l22.2,20L328.5,151.1z M147,169.8c0-12.6,10.2-22.8,22.8-22.8h97.8v45.6h-97.8
			C157.2,192.6,147,182.4,147,169.8z M147,230.7c0-12.6,10.2-22.8,22.8-22.8h97.8v45.6h-97.8C157.2,253.5,147,243.2,147,230.7z
			 M147,291.5c0-12.6,10.2-22.8,22.8-22.8h97.8v45.6h-97.8C157.2,314.3,147,304.1,147,291.5z M147,352.3c0-12.6,10.2-22.8,22.8-22.8
			h97.8v45.6h-97.8C157.2,375.1,147,364.9,147,352.3z M147,413.1c0-12.6,10.2-22.8,22.8-22.8h97.8V436h-97.8
			C157.2,436,147,425.7,147,413.1z M365,474c0,12.6-10.2,22.8-22.8,22.8H169.8c-12.6,0-22.8-10.2-22.8-22.8s10.2-22.8,22.8-22.8
			h97.8v22.3h76v-22.3C355.6,452,365,461.9,365,474z M365,413.1c0,12.1-9.4,22-21.3,22.8v-45.5C355.6,391.2,365,401.1,365,413.1z
			 M365,352.3c0,12.1-9.4,22-21.3,22.8v-45.5C355.6,330.3,365,340.2,365,352.3z M365,291.5c0,12.1-9.4,22-21.3,22.8v-45.5
			C355.6,269.5,365,279.4,365,291.5z M343.7,253.4v-45.5c11.9,0.8,21.3,10.7,21.3,22.8S355.6,252.6,343.7,253.4z"/>
	</g>
</g>
</svg>
