<?xml version="1.0" encoding="utf-8"?>
<!-- Generator: Adobe Illustrator 19.2.0, SVG Export Plug-In . SVG Version: 6.00 Build 0)  -->
<svg version="1.1" id="Layer_1" xmlns="http://www.w3.org/2000/svg" xmlns:xlink="http://www.w3.org/1999/xlink" x="0px" y="0px"
	 viewBox="0 0 512 512" style="enable-background:new 0 0 512 512;" xml:space="preserve">
<style type="text/css">
	.st0{fill:#FF7809;}
</style>
<g>
	<g>
		<path class="st0" d="M431.3,0H80.7c-5.6,0-10.2,4.6-10.2,10.2v491.6c0,5.6,4.6,10.2,10.2,10.2h266.6c2.7,0,5.3-1.1,7.2-3l84-84
			c1.9-1.9,3-4.5,3-7.2V10.2C441.5,4.6,436.9,0,431.3,0z M357.5,477.2l0-49.3l49.3,0L357.5,477.2z M421.1,407.6l-73.9-0.1
			c0,0,0,0,0,0c-2.7,0-5.3,1.1-7.2,3c-1.9,1.9-3,4.5-3,7.2l0.1,73.9H90.9V20.4h330.2V407.6z"/>
	</g>
</g>
<g>
	<g>
		<path class="st0" d="M175,368c-25.6,0-46.5,20.9-46.5,46.5c0,25.6,20.9,46.5,46.5,46.5c25.6,0,46.5-20.9,46.5-46.5
			C221.5,388.8,200.7,368,175,368z M175,440.6c-14.4,0-26.1-11.7-26.1-26.1s11.7-26.1,26.1-26.1s26.1,11.7,26.1,26.1
			S189.4,440.6,175,440.6z"/>
	</g>
</g>
<g>
	<g>
		<path class="st0" d="M308,405.9h-56.1c-5.6,0-10.2,4.6-10.2,10.2s4.6,10.2,10.2,10.2H308c5.6,0,10.2-4.6,10.2-10.2
			S313.6,405.9,308,405.9z"/>
	</g>
</g>
<g>
	<g>
		<path class="st0" d="M171.3,61.2h-29.6c-5.6,0-10.2,4.6-10.2,10.2c0,5.6,4.6,10.2,10.2,10.2h29.6c5.6,0,10.2-4.6,10.2-10.2
			S177,61.2,171.3,61.2z"/>
	</g>
</g>
<g>
	<g>
		<path class="st0" d="M374.3,61.2h-88.7c-5.6,0-10.2,4.6-10.2,10.2c0,5.6,4.6,10.2,10.2,10.2h88.7c5.6,0,10.2-4.6,10.2-10.2
			S379.9,61.2,374.3,61.2z"/>
	</g>
</g>
<g>
	<g>
		<path class="st0" d="M374.3,105.1H223.4c-5.6,0-10.2,4.6-10.2,10.2c0,5.6,4.6,10.2,10.2,10.2h150.9c5.6,0,10.2-4.6,10.2-10.2
			C384.5,109.6,379.9,105.1,374.3,105.1z"/>
	</g>
</g>
<g>
	<g>
		<path class="st0" d="M374.8,185.6H137.2c-5.6,0-10.2,4.6-10.2,10.2s4.6,10.2,10.2,10.2h237.6c5.6,0,10.2-4.6,10.2-10.2
			S380.5,185.6,374.8,185.6z"/>
	</g>
</g>
<g>
	<g>
		<path class="st0" d="M374.8,220.3H137.2c-5.6,0-10.2,4.6-10.2,10.2c0,5.6,4.6,10.2,10.2,10.2h237.6c5.6,0,10.2-4.6,10.2-10.2
			C385,224.9,380.5,220.3,374.8,220.3z"/>
	</g>
</g>
<g>
	<g>
		<path class="st0" d="M374.8,258H137.2c-5.6,0-10.2,4.6-10.2,10.2s4.6,10.2,10.2,10.2h237.6c5.6,0,10.2-4.6,10.2-10.2
			C385,262.6,380.5,258,374.8,258z"/>
	</g>
</g>
<g>
	<g>
		<path class="st0" d="M374.8,292.7h-5.6c-5.6,0-10.2,4.6-10.2,10.2s4.6,10.2,10.2,10.2h5.6c5.6,0,10.2-4.6,10.2-10.2
			C385,297.3,380.5,292.7,374.8,292.7z"/>
	</g>
</g>
<g>
	<g>
		<path class="st0" d="M333.5,292.7H137.2c-5.6,0-10.2,4.6-10.2,10.2s4.6,10.2,10.2,10.2h196.3c5.6,0,10.2-4.6,10.2-10.2
			C343.7,297.3,339.1,292.7,333.5,292.7z"/>
	</g>
</g>
</svg>
