<?xml version="1.0" encoding="utf-8"?>
<!-- Generator: Adobe Illustrator 19.2.0, SVG Export Plug-In . SVG Version: 6.00 Build 0)  -->
<svg version="1.1" id="Capa_1" xmlns="http://www.w3.org/2000/svg" xmlns:xlink="http://www.w3.org/1999/xlink" x="0px" y="0px"
	 viewBox="0 0 470 470" style="enable-background:new 0 0 470 470;" xml:space="preserve">
<style type="text/css">
	.st0{fill:#FF7809;}
</style>
<g>
	<path class="st0" d="M241.5,230.7c-1.3-2.3-3.8-3.8-6.5-3.8s-5.2,1.4-6.5,3.8l-55,95.3c-1.3,2.3-1.3,5.2,0,7.5s3.8,3.8,6.5,3.8
		h45.8l-4.6,4.8c-2.9,3-2.8,7.7,0.2,10.6c1.5,1.4,3.3,2.1,5.2,2.1c2,0,3.9-0.8,5.4-2.3l16.8-17.5c2.8-2.9,2.8-7.5,0-10.4L232,307
		c-2.9-3-7.6-3.1-10.6-0.2c-3,2.9-3.1,7.6-0.2,10.6l4.6,4.8H193l42-72.8l42,72.8h-6.2c-4.1,0-7.5,3.4-7.5,7.5s3.4,7.5,7.5,7.5H290
		c2.7,0,5.2-1.4,6.5-3.8s1.3-5.2,0-7.5L241.5,230.7z"/>
	<path class="st0" d="M332,174.4c-4.1,0-7.5,3.4-7.5,7.5v247.9c0,4.1,3.4,7.5,7.5,7.5s7.5-3.4,7.5-7.5V181.9
		C339.5,177.8,336.1,174.4,332,174.4z"/>
	<path class="st0" d="M138,174.4c-4.1,0-7.5,3.4-7.5,7.5v30c0,4.1,3.4,7.5,7.5,7.5s7.5-3.4,7.5-7.5v-30
		C145.5,177.8,142.1,174.4,138,174.4z"/>
	<path class="st0" d="M138,234.4c-4.1,0-7.5,3.4-7.5,7.5v187.9c0,4.1,3.4,7.5,7.5,7.5s7.5-3.4,7.5-7.5V241.9
		C145.5,237.8,142.1,234.4,138,234.4z"/>
	<path class="st0" d="M396.8,0H332c-4.1,0-7.5,3.4-7.5,7.5v135.9h-179V7.5c0-4.1-3.4-7.5-7.5-7.5H73.2c-4.1,0-7.5,3.4-7.5,7.5v439.8
		c0,12.5,10.2,22.7,22.7,22.7h293.3c12.5,0,22.7-10.2,22.7-22.7V7.5C404.3,3.4,401,0,396.8,0z M389.3,447.3c0,4.2-3.4,7.7-7.7,7.7
		H88.4c-4.2,0-7.7-3.4-7.7-7.7V15h49.8v135.9c0,4.1,3.4,7.5,7.5,7.5h194c4.1,0,7.5-3.4,7.5-7.5V15h49.8V447.3z"/>
</g>
</svg>
