<?xml version="1.0" encoding="utf-8"?>
<!-- Generator: Adobe Illustrator 19.2.0, SVG Export Plug-In . SVG Version: 6.00 Build 0)  -->
<svg version="1.1" id="Capa_1" xmlns="http://www.w3.org/2000/svg" xmlns:xlink="http://www.w3.org/1999/xlink" x="0px" y="0px"
	 viewBox="0 0 60.2 60.2" style="enable-background:new 0 0 60.2 60.2;" xml:space="preserve">
<style type="text/css">
	.st0{fill:#FF7809;}
</style>
<g>
	<path class="st0" d="M36.5,7.8c-0.4-0.4-1-0.4-1.4,0s-0.4,1,0,1.4l4.2,4.2c0.2,0.2,0.5,0.3,0.7,0.3s0.5-0.1,0.7-0.3
		c0.4-0.4,0.4-1,0-1.4L36.5,7.8z"/>
	<path class="st0" d="M52.8,22.4c-0.4-0.4-1-0.4-1.4,0l-1.8,1.8l-1.8-1.8c-0.4-0.4-1-0.4-1.4,0s-0.4,1,0,1.4l1.8,1.8l-1.8,1.8
		c-0.4,0.4-0.4,1,0,1.4c0.2,0.2,0.5,0.3,0.7,0.3s0.5-0.1,0.7-0.3l1.8-1.8l1.8,1.8c0.2,0.2,0.5,0.3,0.7,0.3s0.5-0.1,0.7-0.3
		c0.4-0.4,0.4-1,0-1.4L51,25.7l1.8-1.8C53.2,23.5,53.2,22.8,52.8,22.4z"/>
	<path class="st0" d="M57.7,17.7c-1.5-1.5-3.5-2.3-5.7-2.3c-1.1,0-2.1,0.2-3.1,0.6L33,0l-0.7,0.7c-3.9,3.9-3.9,10.2,0,14.1l8.5,8.5
		l-3.3,3.3l-2.4-5.1l-4.2,2.7l-2.4-5.1l-4.2,2.7L22,16.7l-4.2,2.7l-2.4-5.1l-4.2,2.7L9.4,13c-0.2-0.4-0.6-0.6-1-0.6l-0.7,0.1l-2.6,7
		c-1.2,3.1,0.4,6.6,3.5,7.7c12.7,4.5,18.4,6.5,21.1,7.3l-4,4l-7.6-2.3c-0.4-0.1-0.8-0.1-1.1,0.2c-0.3,0.2-0.5,0.6-0.4,1
		c0.1,1-0.1,1.4-0.2,1.4c-0.3,0.2-1.6,0.4-6.5-3.4l-0.3-0.2c-0.3-0.2-0.7-0.4-1.1-0.4l-4.7,0.1c-1.2-0.2-2.3,0.5-2.7,1.6l-0.8,2.3
		c-0.4,1.2,0.1,2.4,1.2,3l4.2,2.3l14.7,5c0.2,0.8,0.5,1.6,0.9,2.3c-0.1,0.1-0.1,0.1-0.2,0.2c-1.9,2-1.9,5.1,0,7.1
		c1,1,2.3,1.5,3.5,1.5c1.3,0,2.6-0.5,3.5-1.5c0.9-0.9,1.4-2.2,1.5-3.5c1.6-0.3,3-1,4.2-2.2l24-24c1.5-1.5,2.3-3.5,2.3-5.7
		S59.2,19.2,57.7,17.7z M6.9,20.1l1.6-4.3l1.8,4l4.2-2.7l2.4,5.1l4.2-2.7l2.4,5.1l4.2-2.7l2.4,5.1l4.2-2.7l1.7,3.6l-4.7,4.7
		c-2.5-0.8-14.2-4.8-22-7.6C7.2,24.5,6.2,22.2,6.9,20.1z M33.7,13.4C30.8,10.6,30.6,6,33,2.9L47.1,17l-0.7,0.7l0,0l-4.2,4.2
		L33.7,13.4z M2.4,40.1c-0.2-0.1-0.3-0.4-0.2-0.6l0.8-2.3c0.1-0.2,0.3-0.4,0.6-0.3l0.1,0l4.8-0.1l0.3,0.2c3.1,2.4,6.6,4.7,8.7,3.5
		c0.7-0.4,1.1-1.1,1.2-2.2l5.5,1.7l-1.7,1.7c-0.2,0.2-0.3,0.4-0.5,0.6c-1.1,1.3-1.7,3-1.8,4.7c0,0,0,0,0,0L6.5,42.4L2.4,40.1z
		 M22.4,57.3c-1.2-1.2-1.2-3.1,0-4.2c0,0,0,0,0,0l0,0c0.2,0.2,0.4,0.3,0.6,0.5c0.1,0.1,0.3,0.2,0.4,0.3c0.1,0,0.1,0.1,0.2,0.1
		c0.2,0.1,0.3,0.2,0.5,0.3c0,0,0,0,0.1,0c0.2,0.1,0.4,0.2,0.6,0.3c0,0,0,0,0,0c0.9,0.4,1.8,0.6,2.8,0.7c0,0.7-0.3,1.4-0.9,1.9
		C25.4,58.4,23.5,58.4,22.4,57.3z M56.3,27.6l-24,24c-1,1-2.2,1.6-3.6,1.7l-0.3,0c-1.5,0.1-2.9-0.4-4.1-1.3c0,0,0,0,0,0
		c-0.2-0.1-0.3-0.3-0.5-0.4c0,0,0,0,0,0c-0.2-0.2-0.3-0.4-0.5-0.5l0,0c-0.6-0.7-1-1.6-1.1-2.5l0-0.3c-0.2-1.4,0.1-2.8,0.8-4
		c0,0,0,0,0-0.1c0.1-0.2,0.2-0.3,0.3-0.5c0,0,0-0.1,0.1-0.1c0.1-0.2,0.3-0.3,0.4-0.5l18.4-18.4l0,0l5.7-5.7c1.1-1.1,2.6-1.7,4.2-1.7
		s3.1,0.6,4.2,1.7s1.7,2.6,1.7,4.2S57.4,26.4,56.3,27.6z"/>
	<path class="st0" d="M41.6,36.6L29.4,48.8c-0.7,0.7-2.1,0.7-2.8,0c-0.4-0.4-1-0.4-1.4,0c-0.4,0.4-0.4,1,0,1.4
		c0.7,0.8,1.8,1.2,2.8,1.2s2.1-0.4,2.8-1.2L43,38.1c0.4-0.4,0.4-1,0-1.4S42,36.3,41.6,36.6z"/>
	<path class="st0" d="M14.6,42.3l-4.4-1.7c-0.5-0.2-1.1,0-1.3,0.6c-0.2,0.5,0,1.1,0.6,1.3l4.4,1.7c0.1,0,0.2,0.1,0.4,0.1
		c0.4,0,0.8-0.2,0.9-0.6C15.4,43,15.2,42.5,14.6,42.3z"/>
</g>
</svg>
