<?xml version="1.0" encoding="utf-8"?>
<!-- Generator: Adobe Illustrator 19.2.0, SVG Export Plug-In . SVG Version: 6.00 Build 0)  -->
<svg version="1.1" id="Layer_1" xmlns="http://www.w3.org/2000/svg" xmlns:xlink="http://www.w3.org/1999/xlink" x="0px" y="0px"
	 viewBox="0 0 512 512" style="enable-background:new 0 0 512 512;" xml:space="preserve">
<style type="text/css">
	.st0{fill:#FF7809;}
</style>
<g>
	<g>
		<g>
			<path class="st0" d="M316.4,136.5c4.7,0,8.5-3.8,8.5-8.5v-27.2c9.9-3.5,17.1-12.9,17.1-24V59.7c0-14.1-11.5-25.6-25.6-25.6
				s-25.6,11.5-25.6,25.6v17.1c0,11.1,7.2,20.5,17.1,24V128C307.9,132.7,311.7,136.5,316.4,136.5z M307.9,59.7
				c0-4.7,3.8-8.5,8.5-8.5s8.5,3.8,8.5,8.5v17.1c0,4.7-3.8,8.5-8.5,8.5s-8.5-3.8-8.5-8.5V59.7z"/>
			<path class="st0" d="M248.2,136.5c4.7,0,8.5-3.8,8.5-8.5v-27.2c9.9-3.5,17.1-12.9,17.1-24V59.7c0-14.1-11.5-25.6-25.6-25.6
				c-14.1,0-25.6,11.5-25.6,25.6v17.1c0,11.1,7.2,20.5,17.1,24V128C239.6,132.7,243.5,136.5,248.2,136.5z M239.6,59.7
				c0-4.7,3.8-8.5,8.5-8.5c4.7,0,8.5,3.8,8.5,8.5v17.1c0,4.7-3.8,8.5-8.5,8.5c-4.7,0-8.5-3.8-8.5-8.5V59.7z"/>
			<path class="st0" d="M60.4,136.5c4.7,0,8.5-3.8,8.5-8.5V25.6c0-4.7,3.8-8.5,8.5-8.5h273.1c4.7,0,8.5,3.8,8.5,8.5V128
				c0,4.7,3.8,8.5,8.5,8.5s8.5-3.8,8.5-8.5V25.6c0-14.1-11.5-25.6-25.6-25.6H77.5C63.4,0,51.9,11.5,51.9,25.6V128
				C51.9,132.7,55.7,136.5,60.4,136.5z"/>
			<path class="st0" d="M111.6,136.5c4.7,0,8.5-3.8,8.5-8.5v-27.2c9.9-3.5,17.1-12.9,17.1-24V59.7c0-14.1-11.5-25.6-25.6-25.6
				S86,45.6,86,59.7v17.1c0,11.1,7.2,20.5,17.1,24V128C103.1,132.7,106.9,136.5,111.6,136.5z M103.1,59.7c0-4.7,3.8-8.5,8.5-8.5
				c4.7,0,8.5,3.8,8.5,8.5v17.1c0,4.7-3.8,8.5-8.5,8.5c-4.7,0-8.5-3.8-8.5-8.5V59.7z"/>
			<path class="st0" d="M384.7,153.6H43.4c-4.7,0-8.5,3.8-8.5,8.5v324.3c0,14.1,11.5,25.6,25.6,25.6h307.2
				c14.1,0,25.6-11.5,25.6-25.6V162.1C393.2,157.4,389.4,153.6,384.7,153.6z M376.2,486.4c0,4.7-3.8,8.5-8.5,8.5H60.4
				c-4.7,0-8.5-3.8-8.5-8.5V170.7h324.3L376.2,486.4L376.2,486.4z"/>
			<path class="st0" d="M77.5,204.8h273.1c4.7,0,8.5-3.8,8.5-8.5s-3.8-8.5-8.5-8.5H77.5c-4.7,0-8.5,3.8-8.5,8.5
				S72.8,204.8,77.5,204.8z"/>
			<path class="st0" d="M471.2,41.7c-4.4-5.2-10.6-8.5-17.4-9c-14.4-1.3-26.5,9.2-27.7,23.3l-1.5,17c-0.6,6.8,1.5,13.4,5.9,18.7
				c2.5,3,5.6,5.2,9,6.8l-26.2,299.1c-0.4,4.7,3.1,8.8,7.8,9.2c0.2,0,0.5,0,0.8,0c4.4,0,8.1-3.3,8.5-7.8l26.2-299.1
				c10.3-2.6,18.1-11.4,19.1-22.5l1.5-17C477.7,53.6,475.6,47,471.2,41.7z M460.1,58.9l-1.5,17c-0.4,4.4-4.1,7.8-8.5,7.8l-0.8,0
				c-2.3-0.2-4.3-1.3-5.8-3c-1.5-1.7-2.2-4-2-6.2l1.5-17c0.4-4.3,4.1-7.8,9.2-7.8h0.1c2.3,0.2,4.3,1.3,5.8,3
				C459.6,54.4,460.3,56.7,460.1,58.9z"/>
			<path class="st0" d="M244.9,265.2c-3.2,1.3-5.3,4.4-5.3,7.9c0,11.9-2,21.9-4,28.7c-14.3-13.2-21.6-31.4-21.6-54.3
				c0-3.2-1.8-6.2-4.7-7.6c-2.9-1.5-6.3-1.1-8.9,0.8c-37.2,27.9-63.1,72.8-63.1,109.2c0,42.3,34.5,76.8,76.8,76.8
				s76.8-34.5,76.8-76.8c0-30.2-12.7-58.9-36.6-82.8C251.8,264.6,248.1,263.9,244.9,265.2z M254.9,294
				c12.5,17.2,18.8,35.9,18.8,55.9c0,32.9-26.8,59.7-59.7,59.7s-59.7-26.8-59.7-59.7c0-26.8,17.9-60.7,44-85.2
				c3.9,24.7,16.3,44.6,36.6,58.1c2,1.4,4.6,1.8,6.9,1.1c2.4-0.6,4.3-2.2,5.4-4.4C247.6,319,252.3,309.4,254.9,294z"/>
			<path class="st0" d="M77.5,477.9h273.1c4.7,0,8.5-3.8,8.5-8.5s-3.8-8.5-8.5-8.5H77.5c-4.7,0-8.5,3.8-8.5,8.5
				S72.8,477.9,77.5,477.9z"/>
		</g>
	</g>
</g>
</svg>
