<?xml version="1.0" encoding="utf-8"?>
<!-- Generator: Adobe Illustrator 19.2.0, SVG Export Plug-In . SVG Version: 6.00 Build 0)  -->
<svg version="1.1" id="Capa_1" xmlns="http://www.w3.org/2000/svg" xmlns:xlink="http://www.w3.org/1999/xlink" x="0px" y="0px"
	 viewBox="0 0 55.7 55.7" style="enable-background:new 0 0 55.7 55.7;" xml:space="preserve">
<style type="text/css">
	.st0{fill:#FF7809;}
</style>
<g>
	<path class="st0" d="M37.7,40.4L37.7,40.4l-0.1-1.2c-0.2-2.1-0.7-4.2-1.7-6.8c-0.3-0.7-0.4-1.6-0.5-2.4c-0.1-1.8,0.2-3.7,1.1-4.8
		c0.2-0.2,0.3-0.4,0.4-0.7c0.6-1,0.9-2.2,0.9-3.4v0v0c0-0.1,0-0.2,0-0.3l0-1.4l0,0c-0.6-7.2-4.9-9.1-6.3-9.6
		c-0.1-0.2-0.3-0.6-0.4-1.4c0-0.1,0-0.1,0-0.2c1.1-0.4,1.9-1,1.9-1.9v-4c0-1.7-2.7-2.3-5-2.3s-5,0.6-5,2.3v4c0,0.9,0.8,1.5,1.9,1.9
		c0,0.1,0,0.1,0,0.2c-0.1,0.8-0.3,1.2-0.4,1.4c-1.4,0.4-5.6,2.3-6.2,9.6l0,0l0,1.4c0,0.1,0,0.2,0,0.3c0,1.5,0.5,3,1.3,4.1
		c0.8,1,1.1,2.6,1.1,4.3c0,0.7-0.1,1.3-0.3,2c-0.1,0.3-0.2,0.6-0.3,0.9c-0.3,0.6-0.5,1.3-0.7,1.9c-0.6,1.8-0.9,3.4-1,5
		c-0.3,3.8-0.6,9-0.2,12.5c0,1.8,1.7,3.9,9.5,3.9c6.5,0,10.4-1.5,10.5-3.9C38.2,48.5,38,44,37.7,40.4z M20.2,38.3
		c0-0.2,0-0.4,0.1-0.6c0.1-0.3,0.1-0.6,0.2-0.9c0-0.2,0.1-0.4,0.1-0.6c0.1-0.3,0.2-0.7,0.3-1.1c0.1-0.2,0.1-0.3,0.1-0.5
		c0.2-0.5,0.4-1.1,0.6-1.7c0.8-2.1,0.9-4.7,0.3-6.8c-0.3-0.9-0.6-1.8-1.1-2.4c0,0,0,0,0,0c-0.1-0.2-0.2-0.3-0.3-0.5
		c0-0.1-0.1-0.1-0.1-0.2c-0.1-0.1-0.1-0.3-0.2-0.5c0-0.1,0-0.1-0.1-0.2c-0.1-0.2-0.1-0.4-0.1-0.6c2.3,0.5,5,0.7,7.9,0.7
		s5.6-0.3,7.9-0.7c0,0.2-0.1,0.4-0.1,0.6c0,0.1,0,0.1-0.1,0.2c-0.1,0.2-0.1,0.3-0.2,0.5c0,0.1-0.1,0.1-0.1,0.2
		c-0.1,0.2-0.2,0.4-0.3,0.5c-1,1.3-1.5,3.4-1.5,5.5c0,1.3,0.2,2.5,0.7,3.7c0.2,0.6,0.4,1.1,0.6,1.7c0.1,0.2,0.1,0.3,0.1,0.5
		c0.1,0.4,0.2,0.7,0.3,1.1c0,0.2,0.1,0.4,0.1,0.6c0.1,0.3,0.1,0.6,0.2,0.9c0,0.2,0.1,0.4,0.1,0.6c0,0.2,0.1,0.4,0.1,0.6
		c-2.2,0.5-4.9,0.8-7.8,0.8s-5.6-0.3-7.8-0.8C20.1,38.7,20.1,38.5,20.2,38.3z M24.8,2.6c0.3-0.2,1.3-0.6,3-0.6s2.7,0.4,3,0.6v3.6
		c-0.3,0.2-1,0.4-2.1,0.5c-0.6,0-1.1,0-1.7,0c-1.2-0.1-1.9-0.4-2.1-0.5V2.6z M24.8,11.7c0.5-0.2,0.9-0.5,1.2-0.9
		c0.3-0.5,0.5-1.2,0.7-2.1c0,0,0.1,0,0.1,0c0.4,0,0.7,0,1,0c0.4,0,0.8,0,1.2,0c0.1,0.9,0.3,1.6,0.6,2.1c0.3,0.4,0.7,0.8,1.2,0.9
		c1.1,0.3,4.5,1.9,4.9,8.2c-2.2,0.5-4.9,0.8-7.9,0.8c-2.9,0-5.7-0.3-7.9-0.8C20.4,13.6,23.7,12,24.8,11.7z M35.8,51.6l0,0.1
		c0,0.5-2.1,2-8.5,2c-5.9,0-7.5-1.3-7.5-2l0-0.1c-0.3-2.9-0.2-7.2,0.1-10.6c2.3,0.5,5,0.7,7.9,0.7s5.7-0.3,7.9-0.7
		C36,44.4,36.2,48.6,35.8,51.6z"/>
	<path class="st0" d="M27.6,4.9c0.6,0,1-0.4,1-1s-0.4-1-1-1h-1c-0.6,0-1,0.4-1,1s0.4,1,1,1H27.6z"/>
	<path class="st0" d="M26.3,49.7c-1.9,0.1-2.6-0.4-2.8-0.6c-0.2-0.2-0.2-0.3-0.2-0.3c0,0,0,0,0,0l0-1.1c0-0.6-0.4-1-1-1s-1,0.4-1,1
		v0.9c0,0.5,0.1,1.2,0.7,1.8c0.8,0.8,2.1,1.2,3.9,1.2c0.2,0,0.3,0,0.5,0c0.6,0,1-0.5,1-1C27.3,50.1,26.8,49.6,26.3,49.7z"/>
	<path class="st0" d="M22.3,45.7c0.6,0,1-0.4,1-1v-1c0-0.6-0.4-1-1-1s-1,0.4-1,1v1C21.3,45.2,21.8,45.7,22.3,45.7z"/>
	<path class="st0" d="M23.2,18.7c0.1,0,0.1,0,0.2,0c0.5,0,0.9-0.3,1-0.8c0.4-2.2,2.4-3.2,2.5-3.3c0.5-0.2,0.7-0.8,0.5-1.3
		c-0.2-0.5-0.8-0.7-1.3-0.5c-0.1,0.1-3,1.5-3.5,4.7C22.3,18,22.6,18.6,23.2,18.7z"/>
</g>
</svg>
