<?xml version="1.0" encoding="utf-8"?>
<!-- Generator: Adobe Illustrator 19.2.0, SVG Export Plug-In . SVG Version: 6.00 Build 0)  -->
<svg version="1.1" id="Capa_1" xmlns="http://www.w3.org/2000/svg" xmlns:xlink="http://www.w3.org/1999/xlink" x="0px" y="0px"
	 viewBox="0 0 470 470" style="enable-background:new 0 0 470 470;" xml:space="preserve">
<style type="text/css">
	.st0{fill:#FF7809;}
</style>
<g>
	<path class="st0" d="M207.8,116.8c-17.2,17.2-26.7,40.2-26.7,64.6c0,4.3,0.3,8.6,0.9,12.8L10.1,366c-13.5,13.5-13.5,35.5,0,49.1
		L55,459.8c6.8,6.8,15.6,10.1,24.5,10.1c8.9,0,17.8-3.4,24.5-10.1L275.8,288c4.2,0.6,8.5,0.9,12.8,0.9c24.4,0,47.3-9.5,64.6-26.7
		l76.7-76.7L284.5,40L207.8,116.8z M89.9,445.7c-5.7,5.7-15.1,5.7-20.8,0l-44.8-44.8c-5.7-5.7-5.7-15,0-20.8L188,216.4
		c4.5,10.9,11.2,20.9,19.8,29.5l16.3,16.3c8.6,8.6,18.6,15.3,29.5,19.8L89.9,445.7z M339.1,248c-13.5,13.5-31.4,20.9-50.4,20.9
		s-36.9-7.4-50.4-20.9l-16.3-16.3c-13.5-13.5-20.9-31.4-20.9-50.4s7.4-36.9,20.9-50.4l30.1-30.1l117.1,117.1L339.1,248z
		 M383.3,203.8L266.2,86.6l18.3-18.3l117.1,117.1L383.3,203.8z"/>
	<rect x="373.1" y="54.9" transform="matrix(0.7071 -0.7071 0.7071 0.7071 72.7666 305.446)" class="st0" width="64" height="20"/>
	<rect x="349" class="st0" width="20" height="64"/>
	<rect x="406" y="101" class="st0" width="64" height="20"/>
	<path class="st0" d="M102.8,317.8l49.4,49.4l71.7-71.7l-49.4-49.4L102.8,317.8z M131.1,317.8l14.7-14.7l21.1,21.1l-14.7,14.7
		L131.1,317.8z M181,310.1L159.8,289l14.6-14.6l21.1,21.1L181,310.1z"/>
</g>
</svg>
