<?xml version="1.0" encoding="utf-8"?>
<!-- Generator: Adobe Illustrator 19.2.0, SVG Export Plug-In . SVG Version: 6.00 Build 0)  -->
<svg version="1.1" id="Capa_1" xmlns="http://www.w3.org/2000/svg" xmlns:xlink="http://www.w3.org/1999/xlink" x="0px" y="0px"
	 viewBox="0 0 205 205" style="enable-background:new 0 0 205 205;" xml:space="preserve">
<style type="text/css">
	.st0{fill:#FF7809;}
</style>
<g>
	<g>
		<path class="st0" d="M82.9,49.7c1.7,0,3.3-0.5,4.7-1.3c4.3-2.6,5.7-8.2,3.1-12.5c-0.6-0.9-0.3-2.1,0.7-2.7c0.3-0.2,0.6-0.3,1-0.3
			c0.7,0,1.3,0.4,1.7,0.9c1.6,2.7,4.6,4.4,7.8,4.4c1.7,0,3.3-0.5,4.7-1.3c4.3-2.6,5.7-8.2,3.1-12.5c-3.6-6-10.3-9.8-17.3-9.8
			c-3.7,0-7.3,1-10.4,2.9c-9.5,5.8-12.6,18.2-6.9,27.7C76.8,48,79.8,49.7,82.9,49.7z M85.5,23.3c2.1-1.3,4.5-1.9,6.9-1.9
			c4.7,0,9.1,2.5,11.5,6.5c0.7,1.1,0.3,2.6-0.8,3.3c-0.4,0.2-0.8,0.3-1.2,0.3c-0.8,0-1.6-0.4-2-1.1c-1.6-2.6-4.4-4.2-7.5-4.2
			c-1.6,0-3.1,0.4-4.5,1.3c-4.1,2.5-5.4,7.8-3,11.9c0.7,1.1,0.3,2.6-0.8,3.3c-0.4,0.2-0.8,0.3-1.2,0.3c-0.8,0-1.6-0.4-2-1.1
			C77.1,35.4,79.1,27.1,85.5,23.3z"/>
		<path class="st0" d="M135.8,32c0.7,0.1,1.4,0.1,2.1,0.1h0c10.4,0,19-7.8,20.1-18.1c0.3-2.4-0.4-4.8-2-6.7s-3.7-3.1-6.1-3.3
			c-0.3,0-0.6,0-1,0c-4.7,0-8.6,3.5-9.1,8.2c-0.1,1-1,1.7-1.9,1.7c-0.1,0-0.1,0-0.2,0c-0.5-0.1-1-0.3-1.3-0.7
			c-0.3-0.4-0.5-0.9-0.4-1.4c0.3-2.4-0.5-4.8-2-6.7c-1.5-1.9-3.7-3.1-6.1-3.3c-0.3,0-0.6,0-1,0c-4.7,0-8.6,3.5-9.1,8.2
			c-0.6,5.4,1,10.6,4.4,14.8S130.4,31.4,135.8,32z M124.5,10.5c0.1-1.2,1.1-2.1,2.4-2.1c0.1,0,0.2,0,0.3,0c0.6,0.1,1.2,0.4,1.6,0.9
			c0.4,0.5,0.6,1.1,0.5,1.7c-0.2,2.3,0.4,4.6,1.9,6.4c1.5,1.8,3.5,2.9,5.8,3.2c0.3,0,0.6,0,0.9,0c4.5,0,8.2-3.4,8.6-7.8
			c0.1-1.3,1.3-2.3,2.6-2.1c0.6,0.1,1.2,0.4,1.6,0.9c0.4,0.5,0.6,1.1,0.5,1.7c-0.7,6.9-6.5,12.1-13.4,12.1c-0.5,0-0.9,0-1.4-0.1
			c-3.6-0.4-6.8-2.1-9-4.9C125.2,17.5,124.1,14,124.5,10.5z"/>
		<path class="st0" d="M62.7,30.8c2.8-4.6,3.7-10,2.5-15.3C63,6.4,54.9,0,45.5,0c-1.6,0-3.1,0.2-4.6,0.5c-2.4,0.6-4.4,2-5.7,4.1
			c-1.3,2.1-1.7,4.5-1.1,6.9c1,4.1,4.6,7,8.9,7c0.7,0,1.4-0.1,2.1-0.2c1-0.2,2.1,0.4,2.3,1.4c0.1,0.5,0,1-0.2,1.5S46.5,22,46,22.1
			c-2.4,0.6-4.4,2-5.7,4.1c-1.3,2.1-1.7,4.5-1.1,6.9c1,4.1,4.6,7,8.9,7l0,0c0.7,0,1.4-0.1,2.1-0.2C55.4,38.6,59.8,35.4,62.7,30.8z
			 M56.9,27.3c-1.9,3.1-4.9,5.2-8.3,6c-0.2,0-0.4,0.1-0.5,0.1h0c-1.1,0-2.1-0.8-2.3-1.8c-0.1-0.6,0-1.3,0.3-1.8
			c0.3-0.5,0.9-0.9,1.5-1.1c2.3-0.5,4.2-1.9,5.4-3.9c1.2-2,1.6-4.3,1.1-6.6c-0.9-3.9-4.4-6.7-8.5-6.7c-0.7,0-1.3,0.1-2,0.2
			c-0.2,0-0.4,0.1-0.5,0.1c-1.1,0-2.1-0.8-2.3-1.8c-0.1-0.6,0-1.3,0.3-1.8c0.3-0.5,0.9-0.9,1.5-1.1c1-0.2,2.1-0.4,3.1-0.4
			c6.3,0,11.6,4.3,13.1,10.4C59.4,20.6,58.8,24.2,56.9,27.3z"/>
		<path class="st0" d="M171.2,182L171.2,182c0-0.1,0-0.3,0-0.4c0,0,0-0.1,0-0.1c0-0.1,0-0.2-0.1-0.3c0,0,0,0,0,0
			c0-0.1-2.9-12.7-2.9-31.5v-41.1c0-18.7,2.8-31.4,2.8-31.5l0,0c0-0.1,0-0.2,0.1-0.3c0,0,0,0,0,0c0-0.1,0-0.2,0-0.4v0v0V56.7
			c0-1.9-1.5-3.4-3.4-3.4h-9.4c0.2-7.6-3.9-14.8-10.7-18.4c-1.3-0.7-2.8-1.1-4.3-1.1c-3.4,0-6.5,1.9-8.1,4.9
			c-2.4,4.4-0.6,10,3.8,12.3c0.8,0.4,1.2,1.4,0.9,2.3H56c-1.9,0-3.4,1.5-3.4,3.4v19.7l0,0c0,0,0,0,0,0.1c0,0.1,0,0.2,0,0.3
			c0,0,0,0.1,0,0.1c0,0.1,0,0.2,0,0.3c0,0,0,0,0,0c0,0.1,3,12.8,3,31.5v41.1c0,18.7-2.9,31.4-2.9,31.5c0,0,0,0,0,0
			c0,0.1,0,0.2,0,0.3c0,0,0,0.1,0,0.1c0,0.1,0,0.2,0,0.3c0,0,0,0,0,0.1v0v19.7c0,1.9,1.5,3.4,3.4,3.4h111.8c1.9,0,3.4-1.5,3.4-3.4
			L171.2,182L171.2,182L171.2,182z M89.7,185.4v12.9H77.9v-12.9H89.7z M96.5,185.4h11.8v12.9H96.5V185.4z M115.1,185.4h11.4v12.9
			h-11.4V185.4z M133.2,185.4H145v12.9h-11.8V185.4z M60.1,178.6c0.9-5.4,2.3-15.6,2.3-28.9v-41.1c0-13.3-1.4-23.5-2.4-28.9h103.6
			c-0.9,5.4-2.2,15.6-2.2,28.9v41.1c0,13.3,1.4,23.5,2.3,28.9H60.1z M144.9,60.1V73h-11.8V60.1H144.9z M126.3,73H115V60.1h11.4V73z
			 M108.2,73H96.4V60.1h11.8V73z M89.6,73H77.8V60.1h11.8C89.6,60.1,89.6,73,89.6,73z M164.3,73h-12.7V60.1h12.7V73z M141.2,41.9
			c0.4-0.8,1.2-1.3,2.1-1.3c0.4,0,0.8,0.1,1.1,0.3c4,2.1,6.6,6.2,7.1,10.6h-4.8c-0.4-2.7-2-5.1-4.5-6.4
			C141,44.5,140.6,43,141.2,41.9z M59.3,60.1h11.7V73H59.3V60.1z M59.4,185.4h11.7v12.9H59.4V185.4z M164.4,198.3h-12.7v-12.9h12.7
			V198.3z"/>
		<path class="st0" d="M146.2,108.6h-7.5c-1.9,0-3.4,1.5-3.4,3.4c0,1.9,1.5,3.4,3.4,3.4h4.1v27.1H81.4v-27.1h39.1
			c1.9,0,3.4-1.5,3.4-3.4c0-1.9-1.5-3.4-3.4-3.4H78c-1.9,0-3.4,1.5-3.4,3.4v33.8c0,1.9,1.5,3.4,3.4,3.4h68.2c1.9,0,3.4-1.5,3.4-3.4
			V112C149.6,110.1,148.1,108.6,146.2,108.6z"/>
	</g>
</g>
</svg>
