<?xml version="1.0" encoding="utf-8"?>
<!-- Generator: Adobe Illustrator 19.2.0, SVG Export Plug-In . SVG Version: 6.00 Build 0)  -->
<svg version="1.1" id="Capa_1" xmlns="http://www.w3.org/2000/svg" xmlns:xlink="http://www.w3.org/1999/xlink" x="0px" y="0px"
	 viewBox="0 0 389.6 389.6" style="enable-background:new 0 0 389.6 389.6;" xml:space="preserve">
<style type="text/css">
	.st0{fill:#FF7809;}
</style>
<g>
	<g>
		<path class="st0" d="M343.4,49.2c-6-6-14.4-9.6-23.6-9.6H313c-1.2-10.4-5.6-19.6-12.8-26.4C292.2,5.2,281,0,269,0h-12.8
			C243.8,0,233,4.8,225,13.2c-6.8,6.8-11.6,16.4-12.8,26.4h-6.8c-9.2,0-17.6,3.6-23.6,9.6c-2.8,2.8-4.8,5.6-6.4,9.2
			c-2-6.8-6-12.8-10.8-17.6c-8-8-19.2-13.2-31.2-13.2h-12.8c-12.4,0-23.2,4.8-31.2,13.2c-6.8,6.8-11.6,16.4-12.8,26.4h-6.8
			c-9.2,0-17.6,3.6-23.6,9.6s-9.6,14.4-9.6,23.6v256c0,9.2,3.6,17.6,9.6,23.6c-0.4,0,0,0.4,0,0.4c6,5.6,14,9.2,22.8,9.2h114.8
			c9.2,0,17.6-3.6,23.6-9.6c4.8-4.8,8-10.8,9.2-18h103.2c9.2,0,17.6-3.6,23.6-9.6s9.6-14.4,9.6-23.6v-256
			C353,63.6,349.4,55.2,343.4,49.2z M238.2,26.4c4.4-4.4,10.8-7.6,18-7.6H269c6.8,0,13.2,2.8,18,7.6c3.6,3.6,6,8,6.8,13.2h-62.4
			C232.2,34.4,234.6,30,238.2,26.4z M102.2,54c4.4-4.4,10.8-7.6,18-7.6H133c6.8,0,13.2,2.8,18,7.6c3.6,3.6,6,8,6.8,13.2H95.4
			C96.2,62,99,57.6,102.2,54z M197.8,352.4v4c0,4-1.6,7.6-4,10s-6,4-10,4H69.4c-3.6,0-7.2-1.6-9.6-4l-0.4-0.4c-2.4-2.4-4-6-4-10
			V100.4H55c0-4,1.6-7.6,4-10s6-4,10-4h16h82.4H181h2.8c4,0,7.6,1.6,10,4s4,6,4,10V352.4z M333.4,328.8c0,4-1.6,7.6-4,10s-6,4-10,4
			h-102V100.4c0-9.2-3.6-17.6-9.6-23.6c-0.8-0.8-2-2-3.2-2.8c-0.4-0.4-0.4-0.4-0.8-0.8c-0.8-0.8-2-1.2-2.8-2c-0.4,0-0.4-0.4-0.8-0.4
			c-1.2-0.8-2.4-1.2-3.6-1.6c-0.4,0-0.8-0.4-0.8-0.4c-1.2-0.4-2-0.8-3.2-1.2c-0.4,0-0.4,0-0.8,0c0.8-1.6,1.6-3.2,3.2-4.8
			c2.4-2.4,6-4,10-4h16h82.4h16c4,0,7.6,1.6,10,4c2.4,2.4,4,6,4,10L333.4,328.8L333.4,328.8z"/>
	</g>
</g>
<g>
	<g>
		<path class="st0" d="M147.8,125.2h-11.6v-11.6c0-5.2-4.4-9.6-9.6-9.6c-5.2,0-9.6,4.4-9.6,9.6v11.6h-11.6c-5.2,0-9.6,4.4-9.6,9.6
			c0.4,5.6,4.4,9.6,9.6,9.6H117V156c0,5.2,4.4,9.6,9.6,9.6c5.2,0,9.6-4.4,9.6-9.6v-11.6h11.6c5.2,0,9.6-4.4,9.6-9.6
			S153,125.2,147.8,125.2z"/>
	</g>
</g>
<g>
	<g>
		<path class="st0" d="M147.8,321.2h-42.4c-5.2,0-9.6,4.4-9.6,9.6c0.4,5.6,4.4,9.6,9.6,9.6h42.4c5.2,0,9.6-4.4,9.6-9.6
			S153,321.2,147.8,321.2z"/>
	</g>
</g>
<g>
	<g>
		<path class="st0" d="M283.8,97.6h-11.6V86c0-5.2-4.4-9.6-9.6-9.6S253,80.8,253,86v11.6h-11.6c-5.2,0-9.6,4.4-9.6,9.6
			s4.4,9.6,9.6,9.6H253v11.6c0,5.2,4.4,9.6,9.6,9.6s9.6-4.4,9.6-9.6v-11.6h11.6c5.2,0,9.6-4.4,9.6-9.6
			C293.4,102,289,97.6,283.8,97.6z"/>
	</g>
</g>
<g>
	<g>
		<path class="st0" d="M283.8,293.6h-42.4c-5.2,0-9.6,4.4-9.6,9.6s4.4,9.6,9.6,9.6h42.4c5.2,0,9.6-4.4,9.6-9.6
			S289,293.6,283.8,293.6z"/>
	</g>
</g>
</svg>
