<?xml version="1.0" encoding="utf-8"?>
<!-- Generator: Adobe Illustrator 19.2.0, SVG Export Plug-In . SVG Version: 6.00 Build 0)  -->
<svg version="1.1" id="Layer_1" xmlns="http://www.w3.org/2000/svg" xmlns:xlink="http://www.w3.org/1999/xlink" x="0px" y="0px"
	 viewBox="0 0 512 512" style="enable-background:new 0 0 512 512;" xml:space="preserve">
<style type="text/css">
	.st0{fill:#FF7809;}
</style>
<g>
	<g>
		<path class="st0" d="M290.3,256.5L290.3,256.5c-4.5,0-8.1,3.6-8.1,8s3.6,8,8.1,8s8-3.6,8-8S294.7,256.5,290.3,256.5z"/>
	</g>
</g>
<g>
	<g>
		<path class="st0" d="M290.4,376.3L290.4,376.3c-4.5,0-8.1,3.6-8.1,8c0,4.4,3.6,8,8.1,8c4.4,0,8-3.6,8-8S294.8,376.3,290.4,376.3z"
			/>
	</g>
</g>
<g>
	<g>
		<path class="st0" d="M290.3,196.7L290.3,196.7c-4.5,0-8.1,3.6-8.1,8s3.6,8,8.1,8s8-3.6,8-8S294.7,196.7,290.3,196.7z"/>
	</g>
</g>
<g>
	<g>
		<path class="st0" d="M290.3,316.4L290.3,316.4c-4.5,0-8.1,3.6-8.1,8s3.6,8,8.1,8s8-3.6,8-8S294.7,316.4,290.3,316.4z"/>
	</g>
</g>
<g>
	<g>
		<path class="st0" d="M477.6,386.5l-7.4-275.2c-0.7-24.3-16.5-46.1-39.3-54.3l-84.1-30L331.1,3.6c-1.3-1.9-3.3-3.2-5.6-3.5
			c-0.4,0-0.7-0.1-1.1-0.1v0H187.6v0c-0.4,0-0.7,0-1.1,0.1c-2.3,0.3-4.3,1.6-5.6,3.5L165.3,27l-84.1,30c-22.9,8.2-38.7,30-39.3,54.3
			l-7.4,275.2c-0.2,6.9,3.9,13.2,10.3,15.8l-1.5,26.6c-0.4,7.2,3.9,13.8,10.6,16.4l48.9,18.6c0.3,7.2,5.3,13.4,12.3,15.3l121.9,32.5
			c0.7,0.2,1.4,0.3,2.1,0.3c1.6,0,3.1-0.5,4.5-1.4c1.9-1.3,3.2-3.3,3.5-5.6l9.2-68.7l9.2,68.7c0.3,2.3,1.6,4.3,3.5,5.6
			c1.9,1.3,4.3,1.7,6.5,1.1l121.9-32.5c7-1.9,12-8.1,12.3-15.3l48.9-18.6c6.8-2.6,11.1-9.2,10.6-16.4l-1.5-26.6
			C473.7,399.7,477.8,393.4,477.6,386.5z M332,33.8L297,89.7c0,0.1-0.1,0.2-0.4,0.2c-0.2,0-0.4-0.1-0.4-0.1l-27.8-22.2l54.3-47.5
			L332,33.8z M189.2,20.1l54.3,47.5l-27.8,22.2c-0.1,0-0.2,0.2-0.4,0.1c-0.2,0-0.3-0.2-0.4-0.2L180,33.8L189.2,20.1z M102.6,446.8
			l-43.1-16.4c-0.2-0.1-0.4-0.3-0.3-0.5l1.2-21.6l42.2,15.8V446.8z M248,375.2L248,375.2l-15.8,118.7L119,463.7
			c-0.2-0.1-0.4-0.3-0.4-0.5V153.4c0-4.4-3.6-8-8-8c-4.4,0-8,3.6-8,8v253.5l-51.9-19.5c-0.2-0.1-0.4-0.3-0.3-0.5l7.4-275.2
			c0.5-17.7,12-33.6,28.7-39.6l80.6-28.8l34.2,54.8c2.5,4,6.6,6.8,11.3,7.6c0.9,0.2,1.9,0.2,2.8,0.2c3.7,0,7.4-1.3,10.4-3.6
			L248,84.6L248,375.2L248,375.2z M256,57.2L208.9,16h94.1L256,57.2z M452.5,430.3l-43.1,16.4l0-22.7l42.2-15.8l1.2,21.6
			C452.9,430,452.7,430.2,452.5,430.3z M461.3,387.5l-51.8,19.4l0.2-253.5c0-4.4-3.6-8-8-8c0,0,0,0,0,0c-4.4,0-8,3.6-8,8l-0.3,309.8
			c0,0.2-0.2,0.5-0.4,0.5l-113.1,30.2L264,375.2V84.6l22.2,17.8c3,2.4,6.6,3.6,10.4,3.6c0.9,0,1.9-0.1,2.8-0.2
			c4.7-0.8,8.8-3.5,11.3-7.6l34.2-54.8l80.6,28.8c16.7,6,28.2,21.9,28.7,39.6l7.4,275.2C461.6,387.2,461.5,387.4,461.3,387.5z"/>
	</g>
</g>
<g>
	<g>
		<path class="st0" d="M213.2,145.4h-68.4c-4.4,0-8,3.6-8,8v59.9c0,13.9,11.3,25.1,25.1,25.1h34.2c13.9,0,25.1-11.3,25.1-25.1v-59.9
			C221.3,149,217.7,145.4,213.2,145.4z M205.2,213.2c0,5-4.1,9.1-9.1,9.1h-34.2c-5,0-9.1-4.1-9.1-9.1v-19.3c2.8,1.1,5.9,1.7,9.1,1.7
			h34.2c3.2,0,6.3-0.6,9.1-1.7L205.2,213.2L205.2,213.2z M205.2,170.5c0,5-4.1,9.1-9.1,9.1h-34.2c-5,0-9.1-4.1-9.1-9.1v-9.1h52.4
			L205.2,170.5L205.2,170.5z"/>
	</g>
</g>
<g>
	<g>
		<circle class="st0" cx="290.2" cy="144.8" r="8"/>
	</g>
</g>
</svg>
