<?xml version="1.0" encoding="utf-8"?>
<!-- Generator: Adobe Illustrator 19.2.0, SVG Export Plug-In . SVG Version: 6.00 Build 0)  -->
<svg version="1.1" id="Layer_1" xmlns="http://www.w3.org/2000/svg" xmlns:xlink="http://www.w3.org/1999/xlink" x="0px" y="0px"
	 viewBox="0 0 512 512" style="enable-background:new 0 0 512 512;" xml:space="preserve">
<style type="text/css">
	.st0{fill:#FF7809;}
</style>
<g>
	<g>
		<path class="st0" d="M464.3,56.4c-1.1-1.1-2.3-2.1-3.6-2.8V8c0-4.4-3.6-8-8-8H59.3c-4.4,0-8,3.6-8,8v45.6
			c-1.3,0.8-2.5,1.7-3.6,2.8c-3.2,3.3-4.8,7.6-4.6,12.1l16.8,435.8c0.2,4.3,3.7,7.7,8,7.7h162.5c4.3,0,7.9-3.4,8-7.7l8.3-223
			c0.2-4.9,4.2-8.8,9.1-8.8h0.6c4.9,0,8.9,3.8,9.1,8.7l8.3,223c0.2,4.3,3.7,7.7,8,7.7h162.5c4.3,0,7.8-3.4,8-7.7l16.8-435.8
			C469.1,64,467.4,59.7,464.3,56.4z M152.9,16h69.5v35.3h-69.5V16z M67.3,16h69.5v35.3H67.3V16z M59.1,67.9c0-0.1,0-0.2,0.1-0.4
			c0.2-0.2,0.3-0.2,0.4-0.2h60.1v43.3c0,16.9-7,32.2-18.2,43.1v-34.6c0-9.1-7.4-16.6-16.6-16.6H60.5L59.1,67.9z M61.1,118.6H85
			c0.3,0,0.5,0.2,0.5,0.5V165c-6.9,3.3-14.4,5.4-22.4,5.9L61.1,118.6z M222.6,496h-147l-0.7-18.2h148.4L222.6,496z M230.9,277.8
			c-0.1,1-0.2,2-0.3,3l-6.7,181H74.3L63.7,186.9c40.1-2.3,72-35.6,72-76.3V67.3h95.1V277.8z M375.2,16h69.5v35.3h-69.5V16z
			 M238.4,51.3V16h120.8v35.3L238.4,51.3L238.4,51.3z M265.1,67.3v128.8c0,5-4.1,9.1-9.1,9.1h-9.1V67.3H265.1z M436.4,496h-147
			l-0.7-18.2h148.4L436.4,496z M437.7,461.8H288.1l-6.7-181c-0.5-13.6-11.5-24.2-25.1-24.2h-0.6c-3.1,0-6,0.6-8.8,1.6v-36.8h9.1
			c13.9,0,25.1-11.3,25.1-25.1V67.3h95.1v43.3c0,40.7,31.9,74,72,76.3L437.7,461.8z M452.9,67.9l-4,103c-31.6-2-56.6-28.2-56.6-60.3
			V67.3h60.1c0.1,0,0.2,0,0.4,0.2C452.9,67.7,452.9,67.8,452.9,67.9z"/>
	</g>
</g>
<g>
	<g>
		<path class="st0" d="M256.1,25.7L256.1,25.7c-4.5,0-8.1,3.6-8.1,8c0,4.4,3.6,8,8.1,8c4.4,0,8-3.6,8-8
			C264.1,29.2,260.5,25.7,256.1,25.7z"/>
	</g>
</g>
</svg>
