<?xml version="1.0" encoding="utf-8"?>
<!-- Generator: Adobe Illustrator 19.2.0, SVG Export Plug-In . SVG Version: 6.00 Build 0)  -->
<svg version="1.1" id="Layer_1" xmlns="http://www.w3.org/2000/svg" xmlns:xlink="http://www.w3.org/1999/xlink" x="0px" y="0px"
	 viewBox="0 0 512 512" style="enable-background:new 0 0 512 512;" xml:space="preserve">
<style type="text/css">
	.st0{fill:#FF7809;}
</style>
<g>
	<g>
		<path class="st0" d="M505.6,365.3c-0.8-0.6-1.7-1.1-2.5-1.6l-3.8-26.8c-3-20.7-20.8-36.2-41.6-36.2c-0.1,0-0.2,0-0.2,0
			c-29.2,0.2-72.8-2.6-116.8-16.4c1.1-3.1,0.1-6.7-2.6-8.8l-83.2-66.6L229.7,83.4c-0.7-3.7-4-6.4-7.9-6.4c-1.2,0-30.2,0.3-49.4,29.2
			c-0.4,0.6-0.7,1.3-0.9,2c-3.5-0.3-7.1,0-10.7,0.9c-18.3,4.9-76.3,24.6-76.3,24.6c-6.2,2.1-12.6,3.1-19.1,3.1H42.2
			c-18.6,0-33.7,15.1-33.7,33.7v173.7c-1.3,0.7-2.5,1.6-3.6,2.7c-3.2,3.1-4.9,7.3-4.9,11.8v59.8c0,9.1,7.4,16.6,16.6,16.6h136.8
			c9.1,0,16.6-7.4,16.6-16.6v-4c9.1,1.4,18.2,2.7,27,4.1C252.1,427,304.2,435,367.2,435c68.7,0,115.7-10.9,132.7-15.6
			c7.1-2,12.1-8.5,12.1-16v-25.1C512,373.3,509.7,368.5,505.6,365.3z M457.4,316.7c0.1,0,0.1,0,0.2,0c12.8,0,23.9,9.6,25.7,22.5
			l3.5,24.4c-21.8,5.2-62.9,12.7-119.6,12.7c-61.7,0-113.1-7.9-167.5-16.3c-5.5-0.9-11.1-1.7-16.7-2.6c16.4-15,52.7-38.6,111.6-27.7
			c10.2,1.9,20.6-2.9,26-11.8l11.7-19.5C379.5,313.8,426.3,316.9,457.4,316.7z M215.4,93.9l19.9,99.3l-23.5-18.8l-10.2-40.9
			c-2.1-8.5-7.3-15.6-14.6-20.3C196.4,100.2,208.2,95.6,215.4,93.9z M24.6,170.5c0-9.7,7.9-17.6,17.6-17.6h23.1
			c8.2,0,16.4-1.3,24.2-3.9l57.8-19.3l7.1,35.7c1.5,7.7-0.4,15.6-5.4,21.7c-5,6.1-12.4,9.6-20.3,9.6H67.9
			c-17.1,0-32.5,7.3-43.3,18.8V170.5z M24.6,256c0-23.9,19.4-43.3,43.3-43.3h60.9c12.7,0,24.6-5.6,32.7-15.5s11.2-22.6,8.8-35
			l-7.4-37.1l1.9-0.5c4.6-1.1,9.3-0.4,13.4,2c4,2.4,6.9,6.3,8,10.8l10.9,43.5c0.4,1.7,1.4,3.2,2.8,4.3l31,24.8l-14.6,14.6
			c-3.1,3.1-3.1,8.2,0,11.3c1.6,1.6,3.6,2.3,5.7,2.3s4.1-0.8,5.7-2.3l15.8-15.8l9.6,7.7l-13.9,13.9c-3.1,3.1-3.1,8.2,0,11.3
			c1.6,1.6,3.6,2.3,5.7,2.3s4.1-0.8,5.7-2.3l15.2-15.2l9.6,7.7l-13.3,13.3c-3.1,3.1-3.1,8.2,0,11.3c1.6,1.6,3.6,2.3,5.7,2.3
			s4.1-0.8,5.7-2.3l14.6-14.6l9.6,7.7L284.5,276c-3.1,3.1-3.1,8.2,0,11.3c1.6,1.6,3.6,2.3,5.7,2.3s4.1-0.8,5.7-2.3l13.9-13.9
			l12.7,10.1l-15.7,26.1c-1.9,3.2-5.7,4.9-9.3,4.3c-20.1-3.7-89-11.7-134.1,40.6c-42.2-6.1-86.8-11.4-138.8-12.3L24.6,256L24.6,256z
			 M496,403.5c0,0.2-0.1,0.4-0.3,0.5c-16.4,4.5-61.7,15-128.5,15c-61.7,0-113.2-7.9-167.8-16.3c-11.8-1.8-24-3.7-36.3-5.5
			c-0.4-0.1-0.8-0.1-1.1-0.1c-1.9,0-3.8,0.7-5.2,2c-1.8,1.5-2.8,3.7-2.8,6.1v13.3c0,0.3-0.2,0.5-0.5,0.5H16.6
			c-0.3,0-0.5-0.2-0.5-0.5v-59.8c0-0.1,0.1-0.3,0.2-0.4c0.1-0.1,0.3-0.2,0.4-0.2c69.6,0.7,126,9.3,180.6,17.7
			c55.1,8.5,107.1,16.4,170,16.4c62.7,0,107.2-9,128.2-14.4c0.1,0,0.2-0.1,0.4,0.1c0.2,0.2,0.2,0.4,0.2,0.5L496,403.5L496,403.5z"/>
	</g>
</g>
</svg>
