<?xml version="1.0" encoding="utf-8"?>
<!-- Generator: Adobe Illustrator 19.2.0, SVG Export Plug-In . SVG Version: 6.00 Build 0)  -->
<svg version="1.1" id="Layer_1" xmlns="http://www.w3.org/2000/svg" xmlns:xlink="http://www.w3.org/1999/xlink" x="0px" y="0px"
	 viewBox="0 0 512 512" style="enable-background:new 0 0 512 512;" xml:space="preserve">
<style type="text/css">
	.st0{fill:#FF7809;}
</style>
<g>
	<g>
		<path class="st0" d="M512,286.2c0-25.9-19.5-47.6-45.3-50.5c-12.8-1.4-25.5-3.8-37.6-7c-47.2-12.6-175.4-69.3-213.6-86.4
			c-12.8-5.7-27.5-3-37.5,6.9l-44.7,44.7c-4.8,4.8-11.7,6.4-18,4.3L65,181.4c-3.7-1.2-6.2-4.7-6.2-8.6V168c0-9.1-7.4-16.6-16.6-16.6
			h-9.6c-13.2,0-24.2,10.3-25.1,23.5L0,294.5c-0.5,9,2.5,17.5,8.5,24.2v37.5c0,9.1,7.4,16.6,16.6,16.6h282.2
			c83.7,0,149.9-16.6,174.5-23.7c6.7-2,12.4-6.7,15.5-12.9l13.8-27.6c0.6-1.1,0.8-2.4,0.8-3.6h0L512,286.2L512,286.2z M425,244.2
			c12.9,3.5,26.4,6,40,7.5c1,0.1,2,0.3,3,0.5c-2.9,0.9-6.2,1.9-10,3c-16,4.5-43.5,10.8-83.6,15.2c-6.9,0.8-13.3,3.5-18.5,8
			L344,288.7c-0.6-0.2-1.2-0.3-1.8-0.4c-21.6-1.7-44.2-4-66.6-6.6l61.3-36.7c27.1,0.2,45.5-3.5,55.7-11.3
			C405.2,238.2,416.3,241.9,425,244.2z M199.2,271.4c-8.5-1.3-16.7-2.5-24.5-3.7l52.5-31.4c3.7-2.2,8-3,12.3-2.2
			c5.9,1.1,11.6,2.1,17.3,3L199.2,271.4z M281.7,240.6c9.2,1.2,18,2.1,26.3,2.9l-58.3,34.9c-8.6-1.1-17-2.3-25.3-3.4L281.7,240.6z
			 M327.2,303.1l-21.9,19c-26.7-0.7-50.9-2.3-74.4-3.9c-30.4-2-61.7-4.1-98.4-4.3l-22.7-40.8C148.4,279.9,243.4,295.8,327.2,303.1z
			 M23.6,176c0.3-4.8,4.3-8.5,9.1-8.5h9.6c0.3,0,0.5,0.2,0.5,0.5v4.8c0,10.8,6.9,20.4,17.2,23.8l50.2,16.7
			c12.2,4.1,25.4,0.9,34.5-8.1l44.7-44.7c5.2-5.2,12.9-6.7,19.6-3.7c3,1.3,6.3,2.8,9.8,4.4l-8.1,8.8c-3,3.3-2.8,8.3,0.5,11.3
			c1.5,1.4,3.5,2.1,5.4,2.1c2.2,0,4.3-0.9,5.9-2.6l11.8-12.8c4.4,1.9,9,3.9,13.7,6l-6.9,7.5c-3,3.3-2.8,8.3,0.5,11.3
			c1.5,1.4,3.5,2.1,5.4,2.1c2.2,0,4.3-0.9,5.9-2.6l10.6-11.5c4.5,2,9.1,3.9,13.8,6l-5.8,6.3c-3,3.3-2.8,8.3,0.5,11.3
			c1.5,1.4,3.5,2.1,5.4,2.1c2.2,0,4.3-0.9,5.9-2.6l9.6-10.4c4.6,2,9.2,3.9,13.9,5.9l-4.8,5.3c-3,3.3-2.8,8.3,0.5,11.3
			c1.5,1.4,3.5,2.1,5.4,2.1c2.2,0,4.3-0.9,5.9-2.6l8.8-9.5c16.9,7,33.7,13.8,49.1,19.7c-22.8,6-69,3.4-129.3-7.6
			c-8-1.5-16.3,0.1-23.4,4.3L150,263.7c-25.5-4.2-44.3-7.5-51.6-8.9C88.8,242.5,76,233,61.3,227.5l-40-15L23.6,176z M16.1,295.4
			l4.2-66.2l35.4,13.3c15.3,5.7,28.1,16.8,36.1,31.1l22.4,40.3H33.7c-4.9,0-9.4-2-12.8-5.5C17.5,304.9,15.8,300.2,16.1,295.4z
			 M483,328.9c-1.1,2.3-3.2,4-5.6,4.7c-18.7,5.4-86.1,23.1-170.1,23.1H25.1c-0.3,0-0.5-0.2-0.5-0.5v-26.2c0.2,0,0.4,0,0.5,0h102.6
			c38.2,0,70.7,2.2,102.1,4.3c31.7,2.1,64.4,4.3,103.1,4.3c68.4,0,127.3-13.2,155.6-20.8L483,328.9z M496,298.9
			c-19,5.7-85.4,23.5-163,23.5c-1.2,0-2.4,0-3.6,0l36.9-32c2.7-2.3,6.1-3.8,9.7-4.2c65.7-7.2,99.6-19.3,110.5-23.9
			c5.9,6.2,9.4,14.6,9.4,23.7L496,298.9L496,298.9z"/>
	</g>
</g>
</svg>
