<?xml version="1.0" encoding="utf-8"?>
<!-- Generator: Adobe Illustrator 19.2.0, SVG Export Plug-In . SVG Version: 6.00 Build 0)  -->
<svg version="1.1" id="Layer_1" xmlns="http://www.w3.org/2000/svg" xmlns:xlink="http://www.w3.org/1999/xlink" x="0px" y="0px"
	 viewBox="0 0 512 512" style="enable-background:new 0 0 512 512;" xml:space="preserve">
<style type="text/css">
	.st0{fill:#FF7809;}
</style>
<g>
	<g>
		<path class="st0" d="M511.9,186.3L491.8,65.5c-3.9-23.3-21.2-42.1-44.1-47.8L392,3.8C381.8,1.3,371.4,0,361,0H151
			c-10.4,0-20.9,1.3-31,3.8L64.4,17.7c-22.9,5.7-40.2,24.5-44.1,47.8L0.1,186.3c-0.6,3.8,1.5,7.5,5.2,8.9l88.8,32.3V504
			c0,4.4,3.6,8,8,8h307.8c4.4,0,8-3.6,8-8V227.4l88.8-32.3C510.4,193.8,512.5,190.1,511.9,186.3z M333.1,16
			c-4,39-37.1,69.5-77.1,69.5S182.9,55,178.9,16C178.9,16,333.1,16,333.1,16z M151,16h11.8c4.1,47.8,44.3,85.5,93.2,85.5
			s89.1-37.7,93.2-85.5H361c2.1,0,4.3,0.1,6.4,0.2c-2,27.1-13.6,52.3-33.1,71.5c-21,20.7-48.8,32-78.3,32
			c-29.4,0-57.1-11.3-78.1-31.8c-19.6-19.2-31.4-44.5-33.3-71.7C146.7,16.1,148.9,16,151,16z M94.1,210.4l-77-28l2.6-15.9l74.4,26.8
			L94.1,210.4L94.1,210.4z M401.9,496H110.1v-18.2h291.8V496z M409.9,119.7c-4.4,0-8,3.6-8,8v334H110.1v-334c0-4.4-3.6-8-8-8
			c-4.4,0-8,3.6-8,8v48.5l-71.7-25.8L36,68.2c2.8-17,15.5-30.7,32.2-34.9l55.7-13.9c1.6-0.4,3.2-0.7,4.8-1.1
			c2.4,30.8,15.8,59.3,38,81.1c24,23.5,55.7,36.4,89.3,36.4c33.7,0,65.5-13,89.5-36.6c22.1-21.7,35.4-50.2,37.8-80.8
			c1.6,0.3,3.2,0.7,4.8,1.1l55.7,13.9c16.7,4.2,29.4,17.9,32.2,34.9l13.7,82.2l-71.7,25.8v-48.5
			C417.9,123.3,414.3,119.7,409.9,119.7z M417.9,210.4v-17.1l74.4-26.8l2.6,15.9L417.9,210.4z"/>
	</g>
</g>
</svg>
