<?xml version="1.0" encoding="utf-8"?>
<!-- Generator: Adobe Illustrator 19.2.0, SVG Export Plug-In . SVG Version: 6.00 Build 0)  -->
<svg version="1.1" id="Layer_1" xmlns="http://www.w3.org/2000/svg" xmlns:xlink="http://www.w3.org/1999/xlink" x="0px" y="0px"
	 viewBox="0 0 512 512" style="enable-background:new 0 0 512 512;" xml:space="preserve">
<style type="text/css">
	.st0{fill:#FF7809;}
</style>
<g>
	<g>
		<path class="st0" d="M373.1,155l1.8-95.2c0.1-6.8-2.4-13.2-7.2-18.1c-0.3-0.3-0.7-0.7-1-1V16.6c0-9.1-7.4-16.6-16.6-16.6H161.9
			c-9.1,0-16.6,7.4-16.6,16.6v24.2c-0.4,0.3-0.7,0.7-1,1c-4.8,4.9-7.3,11.3-7.2,18.1l1.8,95.2c-6.2,2.4-10.6,8.4-10.6,15.5V256
			c0,7.8,5.5,14.4,12.8,16.1l0.7,40.4c-3.1,3-5,7.2-5,11.8v59.9c0,5.4,2.6,10.2,6.6,13.2l1.8,98.3c0.2,9,7.6,16.3,16.6,16.3h68.6
			c9.1,0,16.6-7.4,16.6-16.6V161.9c0-5,4.1-9.1,9.1-9.1c5,0,9.1,4.1,9.1,9.1v333.5c0,9.1,7.4,16.6,16.6,16.6h68.6
			c9,0,16.4-7.3,16.6-16.3l1.8-98.3c4-3,6.6-7.8,6.6-13.2v-59.9c0-4.6-1.9-8.8-5-11.8l0.7-40.4c7.3-1.7,12.8-8.3,12.8-16.1v-85.5
			C383.7,163.4,379.3,157.4,373.1,155z M155.8,53c1.7-1.8,4-2.7,6.5-2.7h25.9v9.1c0,19-15.4,34.5-34.3,34.7l-0.6-34.6
			C153.1,57,154.1,54.7,155.8,53z M144.3,170.5c0-0.3,0.2-0.5,0.5-0.5h25.7c0.3,0,0.5,0.2,0.5,0.5v17.6h-26.7L144.3,170.5
			L144.3,170.5z M144.8,256.5c-0.3,0-0.5-0.2-0.5-0.5v-51.8H171V256c0,0.3-0.2,0.5-0.5,0.5H144.8z M153.4,323.9h17.1
			c0.3,0,0.5,0.2,0.5,0.5V342h-18.2v-17.6C152.9,324.1,153.1,323.9,153.4,323.9z M152.9,384.3v-26.2H171v26.2c0,0.3-0.2,0.5-0.5,0.5
			h-17.1C153.1,384.8,152.9,384.6,152.9,384.3z M230.9,495.4c0,0.3-0.2,0.5-0.5,0.5h-68.6c-0.3,0-0.5-0.2-0.5-0.5l-0.3-17.6h70
			L230.9,495.4L230.9,495.4z M248,138.1c-9.9,3.4-17.1,12.8-17.1,23.8v299.8h-70.3l-1.1-60.9h11c9.1,0,16.6-7.4,16.6-16.6v-59.9
			c0-9.1-7.4-16.6-16.6-16.6h-12.7l-0.7-35.3h13.4c9.1,0,16.6-7.4,16.6-16.6v-85.5c0-9.1-7.4-16.6-16.6-16.6h-15.6l-0.8-43.8
			c27.7-0.4,50-23,50-50.8v-9.1H248L248,138.1L248,138.1z M248,34.2h-85.7c-0.3,0-0.6,0-0.9,0V16.6c0-0.3,0.2-0.5,0.5-0.5h86V34.2z
			 M358.8,59.5l-0.6,34.6c-19-0.2-34.3-15.7-34.3-34.7v-9.1h25.9c2.5,0,4.8,1,6.5,2.7S358.9,57,358.8,59.5z M264,16h86
			c0.3,0,0.5,0.2,0.5,0.5v17.7c-0.3,0-0.6,0-0.9,0H264L264,16L264,16z M350.8,495.4c0,0.3-0.2,0.5-0.5,0.5h-68.6
			c-0.3,0-0.5-0.2-0.5-0.5v-17.6h70L350.8,495.4z M351.4,461.8h-70.3V161.9c0-11-7.2-20.4-17.1-23.8V50.2h43.8v9.1
			c0,27.8,22.4,50.4,50,50.8l-0.8,43.8h-15.6c-9.1,0-16.6,7.4-16.6,16.6V256c0,9.1,7.4,16.6,16.6,16.6h13.4l-0.7,35.3h-12.7
			c-9.1,0-16.6,7.4-16.6,16.6v59.9c0,9.1,7.4,16.6,16.6,16.6h11L351.4,461.8z M359.1,384.3c0,0.3-0.2,0.5-0.5,0.5h-17.1
			c-0.3,0-0.5-0.2-0.5-0.5v-26.2h18.2L359.1,384.3L359.1,384.3z M359.1,342H341v-17.6c0-0.3,0.2-0.5,0.5-0.5h17.1
			c0.3,0,0.5,0.2,0.5,0.5L359.1,342L359.1,342z M367.7,256c0,0.3-0.2,0.5-0.5,0.5h-25.7c-0.3,0-0.5-0.2-0.5-0.5v-51.8h26.7
			L367.7,256L367.7,256z M367.7,188.1H341v-17.6c0-0.3,0.2-0.5,0.5-0.5h25.7c0.3,0,0.5,0.2,0.5,0.5L367.7,188.1L367.7,188.1z"/>
	</g>
</g>
</svg>
