<?xml version="1.0" encoding="utf-8"?>
<!-- Generator: Adobe Illustrator 19.2.0, SVG Export Plug-In . SVG Version: 6.00 Build 0)  -->
<svg version="1.1" id="Layer_1" xmlns="http://www.w3.org/2000/svg" xmlns:xlink="http://www.w3.org/1999/xlink" x="0px" y="0px"
	 viewBox="0 0 512 512" style="enable-background:new 0 0 512 512;" xml:space="preserve">
<style type="text/css">
	.st0{fill:#FF7809;}
</style>
<g>
	<g>
		<path class="st0" d="M509.9,403.4l-15-48.9v-58.6c0-116.7-90.7-212.7-205.3-221.2c0-0.4,0-0.8,0-1.2c0-13.8-11.3-25.1-25.1-25.1
			h-17.1c-13.9,0-25.1,11.3-25.1,25.1c0,0.4,0,0.8,0,1.2C107.8,83.2,17.1,179.2,17.1,295.9v58.6l-15,48.9
			c-4.7,15.4-1.3,31.9,9.2,44.1c10.4,12.1,26.1,17.9,41.9,15.5c59.2-9,129.3-13.7,202.8-13.7S399.6,454,458.8,463
			c2.3,0.4,4.7,0.5,7,0.5c13.3,0,26-5.7,34.9-16.1C511.2,435.3,514.7,418.8,509.9,403.4z M478.9,295.9v49.4
			c-18.3-4.7-38.8-8.7-60.9-12v-37.4c0-58.7-15.3-113.9-43.1-155.6c-10.4-15.6-22.2-28.7-34.9-39
			C420.7,129.1,478.9,205.8,478.9,295.9z M441.8,353.5l18.3,58.9C399.8,403.7,329.4,399,256,399s-143.8,4.6-204.1,13.4l18.3-58.9
			c52.4-9.9,117.6-15.4,185.8-15.4S389.4,343.6,441.8,353.5z M247.4,64.5h17.1c5,0,9.1,4.1,9.1,9.1c0,0.2,0,0.4,0,0.5
			c-0.2,0-0.3,0-0.5,0h-5.7h-22.8h-5.7c-0.2,0-0.3,0-0.5,0c0-0.2,0-0.4,0-0.5C238.4,68.6,242.4,64.5,247.4,64.5z M244.6,90.1h22.8
			c74.2,0,134.5,92.3,134.5,205.7V331c-44.3-5.8-94.3-8.9-145.9-8.9s-101.6,3.1-145.9,8.9v-35.1C110.1,182.4,170.4,90.1,244.6,90.1z
			 M33.2,295.9c0-90.1,58.2-166.8,138.9-194.6c-12.7,10.3-24.4,23.3-34.9,39c-27.8,41.7-43.1,96.9-43.1,155.6v37.4
			c-22.2,3.3-42.7,7.4-60.9,12C33.1,345.3,33.1,295.9,33.2,295.9z M488.5,437c-6.8,7.9-17,11.7-27.3,10.1
			c-60-9.1-130.9-13.9-205.2-13.9s-145.2,4.8-205.2,13.9c-10.3,1.6-20.5-2.2-27.3-10.1c-6.9-8-9.2-18.8-6.1-28.9l14.1-45.8
			c6.6-1.8,13.5-3.5,20.7-5.1l-17.5,56.2c-1.6,5.2,0.5,9.1,1.8,10.9c2.7,3.7,7,5.5,11.4,4.8c60.9-9.2,132.8-14.1,207.9-14.1
			s147.1,4.9,207.9,14.1c0.7,0.1,1.3,0.2,1.9,0.2c3.7,0,7.2-1.8,9.5-5c1.4-1.9,3.4-5.7,1.8-10.9l-17.5-56.2
			c7.2,1.6,14.1,3.3,20.7,5.1l14.1,45.8C497.7,418.2,495.4,429,488.5,437z"/>
	</g>
</g>
<g>
	<g>
		<path class="st0" d="M281.7,245.1h-51.3c-13.9,0-25.1,11.3-25.1,25.1s11.3,25.1,25.1,25.1h51.3c13.9,0,25.1-11.3,25.1-25.1
			S295.5,245.1,281.7,245.1z M281.7,279.3h-51.3c-5,0-9.1-4.1-9.1-9.1c0-5,4.1-9.1,9.1-9.1h51.3c5,0,9.1,4.1,9.1,9.1
			S286.7,279.3,281.7,279.3z"/>
	</g>
</g>
</svg>
