<?xml version="1.0" encoding="utf-8"?>
<!-- Generator: Adobe Illustrator 19.2.0, SVG Export Plug-In . SVG Version: 6.00 Build 0)  -->
<svg version="1.1" id="Layer_1" xmlns="http://www.w3.org/2000/svg" xmlns:xlink="http://www.w3.org/1999/xlink" x="0px" y="0px"
	 viewBox="0 0 512 512" style="enable-background:new 0 0 512 512;" xml:space="preserve">
<style type="text/css">
	.st0{fill:#FF7809;}
</style>
<g>
	<g>
		<path class="st0" d="M462.8,145c-13.5-7.6-29.4-4.8-41.5,7.3l-22.3,22.3c-1.7,1.7-3.6,1.2-4.3,0.9c-0.7-0.3-2.5-1.3-2.5-3.7V76.5
			c0-24-10.9-46.2-30-60.7c-19.1-14.6-43.3-19.3-66.5-13l-45,12.3c-20.9,5.7-38.3,19-49.4,36.5c-20.2-1.4-40.3,5.3-55.8,18.9
			c-16.5,14.5-25.9,35.4-25.9,57.4V223c0,2.4-1.7,3.4-2.5,3.7c-0.7,0.3-2.6,0.8-4.3-0.9l-22.3-22.3c-12.1-12.1-28-14.9-41.5-7.3
			c-13,7.3-18.2,24.1-12.1,38.4l80.2,196.6c-3.7,3-6.1,7.7-6.1,12.9v51.3c0,9.1,7.4,16.6,16.6,16.6h162.5c9.1,0,16.6-7.4,16.6-16.6
			v-34.7h77.5c9.1,0,16.6-7.4,16.6-16.6v-51.3c0-5.2-2.4-9.8-6.1-12.9l80.2-196.6C481.1,169.1,475.8,152.2,462.8,145z M51.9,228.5
			c0-0.1-0.1-0.1-0.1-0.2c-3-6.8-0.7-14.8,5.2-18.1c10.5-5.9,19.7,2.1,22.3,4.7l22.3,22.3c5.7,5.7,14.3,7.4,21.8,4.3
			c7.5-3.1,12.4-10.4,12.4-18.5v-95.2c0-17.6,7.3-33.7,20.5-45.3c10.5-9.2,23.6-14.4,37.3-15c-3.5,9.3-5.4,19.3-5.4,29.6v80.9
			c0,32.8,4,65.5,12,97.3l3.7,14.8c6.6,26.5,10,53.7,10,81v7.3c-5.1,2.8-8.6,8.3-8.6,14.5v34.7h-72.1L51.9,228.5z M290.7,495.4
			c0,0.3-0.2,0.5-0.5,0.5H127.7c-0.3,0-0.5-0.2-0.5-0.5v-51.3c0-0.3,0.2-0.5,0.5-0.5c0,0,0,0,0,0c0,0,0,0,0,0h77.4v0.5
			c0,9.1,7.4,16.6,16.6,16.6h68.9L290.7,495.4L290.7,495.4z M384.8,444.1L384.8,444.1c0,0.3-0.2,0.5-0.5,0.5H221.8
			c-0.3,0-0.5-0.2-0.5-0.5v-51.3c0-0.3,0.2-0.5,0.5-0.5h162.4c0,0,0,0,0,0c0,0,0,0,0,0c0.3,0,0.5,0.2,0.5,0.5L384.8,444.1
			L384.8,444.1z M460.1,177c0,0.1-0.1,0.1-0.1,0.2l-81.2,199H229.8v-5.2c0-28.6-3.5-57.2-10.5-84.9l-3.7-14.8
			c-7.6-30.5-11.5-62-11.5-93.5V97c0-31,20.9-58.4,50.8-66.5l45-12.3c18.3-5,37.5-1.3,52.5,10.3s23.7,29,23.7,48v95.3
			c0,8.1,4.8,15.4,12.4,18.5c7.5,3.1,16.1,1.4,21.8-4.3l22.3-22.3c2.6-2.6,11.8-10.5,22.3-4.7C460.9,162.2,463.1,170.2,460.1,177z"
			/>
	</g>
</g>
</svg>
