<?xml version="1.0" encoding="utf-8"?>
<!-- Generator: Adobe Illustrator 19.2.0, SVG Export Plug-In . SVG Version: 6.00 Build 0)  -->
<svg version="1.1" id="Layer_1" xmlns="http://www.w3.org/2000/svg" xmlns:xlink="http://www.w3.org/1999/xlink" x="0px" y="0px"
	 viewBox="0 0 512 512" style="enable-background:new 0 0 512 512;" xml:space="preserve">
<style type="text/css">
	.st0{fill:#FF7809;}
</style>
<g>
	<g>
		<path class="st0" d="M495.4,196.8h-22c-5.8-10.2-16.7-17.1-29.3-17.1H67.9c-12.5,0-23.5,6.9-29.3,17.1h-22
			c-9.1,0-16.6,7.4-16.6,16.6v8.6c0,13.9,11.3,25.1,25.1,25.1h9.7c2.8,24.4,14.8,46.9,33.9,62.8c17.4,14.6,39.2,22.3,61.5,22.3
			c5.7,0,11.5-0.5,17.3-1.6l0,0c0,0,0,0,0,0c44.4-8.1,78.5-41.9,88.1-84.3c0,0,0,0,0,0c2.1-9.5,10.7-16.4,20.4-16.4
			c9.7,0,18.3,6.9,20.4,16.4c0,0,0,0,0,0c9.6,42.5,43.7,76.3,88.1,84.3l0,0c5.8,1,11.5,1.6,17.3,1.6c22.3,0,44-7.8,61.5-22.3
			c19.1-16,31.1-38.4,33.9-62.8h9.7c13.9,0,25.1-11.3,25.1-25.1v-8.6C512,204.3,504.6,196.8,495.4,196.8z M34.2,213.4v17.6h-9.1
			c-5,0-9.1-4.1-9.1-9.1v-8.6c0-0.3,0.2-0.5,0.5-0.5h17.7C34.2,213.1,34.2,213.2,34.2,213.4z M222.3,221.8
			c0,45.7-32.7,84.9-77.7,93.1l0,0c-23.4,4.3-47.3-2-65.6-17.3S50.2,260,50.2,236.1v-22.7c0-9.7,7.9-17.6,17.6-17.6h136.8
			c9.7,0,17.6,7.9,17.6,17.6L222.3,221.8L222.3,221.8z M273.6,213.4v5.1c-5.3-2.9-11.3-4.6-17.6-4.6s-12.3,1.6-17.6,4.6v-5.1
			c0-6.5-1.8-12.5-5-17.6h45.3C275.5,200.9,273.6,207,273.6,213.4z M461.8,236.1c0,23.8-10.5,46.2-28.8,61.5
			c-18.3,15.3-42.2,21.6-65.6,17.3l0,0l0,0c-45-8.2-77.7-47.3-77.7-93.1v-8.4c0-9.7,7.9-17.6,17.6-17.6h136.8
			c9.7,0,17.6,7.9,17.6,17.6L461.8,236.1L461.8,236.1z M496,222c0,5-4.1,9.1-9.1,9.1h-9.1v-17.6c0-0.2,0-0.4,0-0.5h17.7
			c0.3,0,0.5,0.2,0.5,0.5L496,222L496,222z"/>
	</g>
</g>
<g>
	<g>
		<path class="st0" d="M196,231c-4.3-1.1-8.7,1.5-9.7,5.8c-1.3,5.3-3.4,10.4-6.1,15.1c-8.9,15.5-24.1,26.2-41.6,29.4
			c-2.8,0.5-5.6,0.8-8.4,0.8c-4.4,0-8,3.6-8,8s3.6,8,8,8c3.7,0,7.5-0.3,11.3-1c22.2-4,41.5-17.6,52.7-37.2c3.4-6,6-12.4,7.7-19.1
			C202.9,236.4,200.3,232.1,196,231z"/>
	</g>
</g>
<g>
	<g>
		<path class="st0" d="M435.6,228.1c-4.4,0-8,3.6-8,8c0,25.3-20.5,45.9-45.7,45.9c-2.8,0-5.6-0.3-8.4-0.8c-4.4-0.8-8.5,2.1-9.3,6.5
			c-0.8,4.4,2.1,8.5,6.5,9.3c3.8,0.7,7.6,1,11.3,1c34,0,61.7-27.8,61.7-61.9C443.6,231.7,440,228.1,435.6,228.1z"/>
	</g>
</g>
</svg>
