<?xml version="1.0" encoding="utf-8"?>
<!-- Generator: Adobe Illustrator 19.2.0, SVG Export Plug-In . SVG Version: 6.00 Build 0)  -->
<svg version="1.1" id="Layer_1" xmlns="http://www.w3.org/2000/svg" xmlns:xlink="http://www.w3.org/1999/xlink" x="0px" y="0px"
	 viewBox="0 0 512 512" style="enable-background:new 0 0 512 512;" xml:space="preserve">
<style type="text/css">
	.st0{fill:#FF7809;}
</style>
<g>
	<g>
		<path class="st0" d="M470.7,389.3l-8.9-263.1c-0.8-23.1-15.1-43.8-36.5-52.7l-35.2-14.7l-28.2-46.7C357.4,4.6,349.2,0,340.4,0
			H171.6c-8.7,0-17,4.6-21.5,12.1l-28.2,46.7L86.7,73.5c-21.4,8.9-35.7,29.6-36.5,52.7l-8.9,263.1c-0.3,8.2,3.6,16,9.9,20.8
			l-1.2,25.7c-0.5,9.9,5,19.2,13.8,23.6l64.5,32.4v3.6c0,9.1,7.4,16.6,16.6,16.6h222.3c9.1,0,16.6-7.4,16.6-16.6v-3.6l64.5-32.4
			c8.9-4.5,14.3-13.7,13.8-23.6l-1.2-25.7C467.2,405.2,471,397.5,470.7,389.3z M326.5,16l-68,52.3L186.6,16H326.5z M163.8,20.4
			c0.2-0.3,0.3-0.5,0.5-0.7l80.9,58.9L234,87.2l-60.3-38.4c-6.9-4.4-15.6-5.2-23.1-2l-3.7,1.5L163.8,20.4z M65.6,145.5
			c6.6,2.5,11.4,8.9,11.4,16.5c0,7.9-5.3,14.7-12.5,16.9L65.6,145.5z M71,445.1c-3.2-1.6-5.2-5-5-8.6l0.9-19.1l36.8,15.3l-0.3,10.3
			c-0.2,8.1,2.3,15.7,7.3,21.9L71,445.1z M248,496H144.8c-0.3,0-0.5-0.2-0.5-0.5v-17.6H248L248,496L248,496z M248,461.8H137
			c-4.8,0-9.3-1.9-12.7-5.4c-3.3-3.5-5.1-8-5-12.8l5.5-188.1h123V461.8z M248,239.4H125.4l0.5-18.2h122V239.4z M248,205.2H126.4
			l0.8-26c0.1-4.4-3.4-8.1-7.8-8.2c-4.4-0.1-8.1,3.4-8.2,7.8l-7,236.9l-41.3-17.2c-3.5-1.4-5.7-4.9-5.6-8.7l6.6-194.5
			C80.3,193.1,93,179,93,161.9c0-16.2-11.5-29.8-26.9-33l0.1-2.2c0.6-16.9,11-32,26.6-38.5l64-26.6c2.7-1.1,5.9-0.9,8.4,0.7L248,115
			L248,205.2L248,205.2z M248.4,96.3l99.4-76.4c0.1,0.2,0.3,0.4,0.4,0.6l16.9,27.9l-3.7-1.5c-7.6-3.2-16.2-2.4-23.1,2L256,101.1
			L248.4,96.3z M264,221.3h122l0.5,18.2H264V221.3z M367.7,495.4c0,0.3-0.2,0.5-0.5,0.5H264v-18.2h103.7L367.7,495.4L367.7,495.4z
			 M387.6,456.4c-3.4,3.5-7.8,5.4-12.7,5.4H264V255.5h123l5.5,188.1C392.7,448.4,391,453,387.6,456.4z M441,445.1l-39.7,19.9
			c5-6.2,7.5-13.9,7.3-21.9l-0.3-10.3l36.8-15.3l0.9,19.1C446.2,440.2,444.2,443.5,441,445.1z M449.1,398.5l-41.3,17.2l-7-236.9
			c-0.1-4.4-3.8-7.9-8.2-7.8c-4.4,0.1-7.9,3.8-7.8,8.2l0.8,26H264V115l82.8-52.7c2.5-1.6,5.6-1.9,8.4-0.7l64,26.6
			c15.6,6.5,26,21.6,26.6,38.5l8.9,263.1C454.8,393.6,452.6,397.1,449.1,398.5z"/>
	</g>
</g>
<g>
	<g>
		<path class="st0" d="M181.6,342.5c-4.2-1.4-8.7,0.9-10.1,5.1l-25.7,77c-1.4,4.2,0.9,8.7,5.1,10.1c0.8,0.3,1.7,0.4,2.5,0.4
			c3.4,0,6.5-2.1,7.6-5.5l25.7-77C188,348.4,185.8,343.9,181.6,342.5z"/>
	</g>
</g>
<g>
	<g>
		<path class="st0" d="M366.2,424.5l-25.7-77c-1.4-4.2-5.9-6.5-10.1-5.1c-4.2,1.4-6.5,5.9-5.1,10.1l25.7,77c1.1,3.4,4.2,5.5,7.6,5.5
			c0.8,0,1.7-0.1,2.5-0.4C365.3,433.2,367.6,428.7,366.2,424.5z"/>
	</g>
</g>
</svg>
