<?xml version="1.0" encoding="utf-8"?>
<!-- Generator: Adobe Illustrator 19.2.0, SVG Export Plug-In . SVG Version: 6.00 Build 0)  -->
<svg version="1.1" id="Layer_1" xmlns="http://www.w3.org/2000/svg" xmlns:xlink="http://www.w3.org/1999/xlink" x="0px" y="0px"
	 viewBox="0 0 512 512" style="enable-background:new 0 0 512 512;" xml:space="preserve">
<style type="text/css">
	.st0{fill:#FF7809;}
</style>
<g>
	<g>
		<path class="st0" d="M469.8,410.5h-0.6c-1.4-76.3-23.1-147.8-61.5-202.2c-28.9-41-64.8-68.7-104.1-81.2l1-2l14.3-7.3
			c2.8-1.4,4.5-4.4,4.4-7.5l-0.8-16l8.7-13.5c1.7-2.6,1.7-6,0-8.7l-8.7-13.5l0.8-16c0.2-3.2-1.5-6.1-4.4-7.5l-14.3-7.3l-7.3-14.3
			c-1.4-2.8-4.4-4.5-7.5-4.4l-16,0.8l-13.5-8.7c-2.6-1.7-6-1.7-8.7,0L238.2,10l-16-0.8c-3.2-0.2-6.1,1.5-7.5,4.4l-7.3,14.3
			l-14.3,7.3c-2.8,1.4-4.5,4.4-4.4,7.5l0.8,16l-8.7,13.5c-1.7,2.6-1.7,6,0,8.7l8.7,13.5l-0.8,16c-0.2,3.2,1.5,6.1,4.4,7.5l14.3,7.3
			l1,2c-39.2,12.4-75.1,40.2-104.1,81.2C66,262.6,44.3,334.2,42.8,410.5h-0.6c-9.1,0-16.6,7.4-16.6,16.6v68.4
			c0,9.1,7.4,16.6,16.6,16.6h427.6c9.1,0,16.6-7.4,16.6-16.6V427C486.3,417.9,478.9,410.5,469.8,410.5z M205,105.9l0.7-13.4
			c0.1-1.7-0.4-3.3-1.3-4.8l-7.3-11.3l7.3-11.3c0.9-1.4,1.4-3.1,1.3-4.7L205,47l12-6.1c1.5-0.8,2.7-2,3.5-3.5l6.1-12l13.4,0.7
			c1.7,0.1,3.3-0.4,4.8-1.3l11.3-7.3l11.3,7.3c1.4,0.9,3.1,1.4,4.7,1.3l13.4-0.7l6.1,12c0.8,1.5,2,2.7,3.5,3.5l12,6.1l-0.7,13.4
			c-0.1,1.7,0.4,3.3,1.3,4.8l7.3,11.3l-7.3,11.3c-0.9,1.4-1.4,3.1-1.3,4.7l0.7,13.4l-12,6.1c-1.5,0.8-2.7,2-3.5,3.5l-3.8,7.5
			c-10.4-2.1-21-3.2-31.7-3.2s-21.3,1.1-31.7,3.2l-3.8-7.5c-0.8-1.5-2-2.7-3.5-3.5L205,105.9z M256,135.7
			c69.1,0,130.1,51.3,165.3,128.7c-4.3-1-7.2-3.3-10.7-6.2c-5.7-4.6-12.9-10.3-26.4-10.3c-13.5,0-20.7,5.7-26.4,10.3
			c-4.9,3.9-8.5,6.8-16.4,6.8c-7.9,0-11.4-2.9-16.4-6.8c-5.7-4.6-12.9-10.3-26.4-10.3c-13.5,0-20.6,5.7-26.4,10.3
			c-4.9,3.9-8.5,6.8-16.4,6.8c-7.9,0-11.4-2.9-16.4-6.8c-5.7-4.6-12.9-10.3-26.4-10.3c-13.5,0-20.6,5.7-26.4,10.3
			c-4.9,3.9-8.5,6.8-16.4,6.8s-11.4-2.9-16.4-6.8c-5.7-4.6-12.9-10.3-26.4-10.3c-13.5,0-20.6,5.7-26.4,10.3
			c-3.5,2.8-6.4,5.1-10.6,6.1C125.9,187,186.9,135.7,256,135.7z M83.7,281.1c0.4,0,0.8,0,1.2,0c13.5,0,20.6-5.7,26.4-10.3
			c4.9-3.9,8.5-6.8,16.4-6.8c7.9,0,11.4,2.9,16.4,6.8c5.7,4.6,12.9,10.3,26.4,10.3s20.6-5.7,26.4-10.3c4.9-3.9,8.5-6.8,16.4-6.8
			s11.4,2.9,16.4,6.8c5.7,4.6,12.9,10.3,26.4,10.3c13.5,0,20.6-5.7,26.4-10.3c4.9-3.9,8.5-6.8,16.4-6.8c7.9,0,11.4,2.9,16.4,6.8
			c5.7,4.6,12.9,10.3,26.4,10.3c13.5,0,20.7-5.7,26.4-10.3c4.9-3.9,8.5-6.8,16.4-6.8c7.9,0,11.5,2.9,16.4,6.8
			c5.7,4.6,12.9,10.3,26.4,10.3c0.4,0,0.9,0,1.3,0c7.4,19,13.3,39.4,17.5,60.8c-0.9,0.7-1.7,1.3-2.5,1.9c-4.9,3.9-8.5,6.8-16.4,6.8
			s-11.5-2.9-16.4-6.8c-5.7-4.6-12.9-10.3-26.4-10.3c-13.5,0-20.7,5.7-26.4,10.3c-4.9,3.9-8.5,6.8-16.4,6.8
			c-7.9,0-11.4-2.9-16.4-6.8c-5.7-4.6-12.9-10.3-26.4-10.3c-13.5,0-20.6,5.7-26.4,10.3c-4.9,3.9-8.5,6.8-16.4,6.8
			c-7.9,0-11.4-2.9-16.4-6.8c-5.7-4.6-12.9-10.3-26.4-10.3s-20.6,5.7-26.4,10.3c-4.9,3.9-8.5,6.8-16.4,6.8s-11.4-2.9-16.4-6.8
			c-5.7-4.6-12.9-10.3-26.4-10.3c-13.5,0-20.6,5.7-26.4,10.3c-4.9,3.9-8.5,6.8-16.4,6.8c-7.9,0-11.4-2.8-16.3-6.8
			c-0.8-0.6-1.6-1.3-2.4-1.9C70.4,320.5,76.3,300.1,83.7,281.1z M63.1,359.8c5.1,3.6,11.6,6.9,21.9,6.9c13.5,0,20.6-5.7,26.4-10.3
			c4.9-3.9,8.5-6.8,16.4-6.8c7.9,0,11.4,2.9,16.4,6.8c5.7,4.6,12.9,10.3,26.4,10.3s20.6-5.7,26.4-10.3c4.9-3.9,8.5-6.8,16.4-6.8
			s11.4,2.9,16.4,6.8c5.7,4.6,12.9,10.3,26.4,10.3c13.5,0,20.6-5.7,26.4-10.3c4.9-3.9,8.5-6.8,16.4-6.8c7.9,0,11.4,2.9,16.4,6.8
			c5.7,4.6,12.9,10.3,26.4,10.3c13.5,0,20.7-5.7,26.4-10.3c4.9-3.9,8.5-6.8,16.4-6.8c7.9,0,11.5,2.9,16.4,6.8
			c5.7,4.6,12.9,10.3,26.4,10.3c10.3,0,16.8-3.3,21.9-6.9c2.4,16.4,3.9,33.4,4.2,50.7H58.9C59.2,393.1,60.6,376.2,63.1,359.8z
			 M59.9,496H42.2c-0.3,0-0.5-0.2-0.5-0.5V427c0-0.3,0.2-0.5,0.5-0.5h17.6V496z M94.1,496H75.9v-69.5h18.2V496z M128.3,496h-18.2
			v-69.5h18.2V496z M162.5,496h-18.2v-69.5h18.2L162.5,496L162.5,496z M196.7,496h-18.2v-69.5h18.2V496z M230.9,496h-18.2v-69.5
			h18.2L230.9,496L230.9,496z M265.1,496h-18.2v-69.5h18.2V496z M299.3,496h-18.2v-69.5h18.2V496z M333.5,496h-18.2v-69.5h18.2V496z
			 M367.7,496h-18.2v-69.5h18.2V496z M401.9,496h-18.2v-69.5h18.2V496z M436.1,496h-18.2v-69.5h18.2V496z M470.3,495.4
			c0,0.3-0.2,0.5-0.5,0.5h-17.6v-69.5h17.6c0.3,0,0.5,0.2,0.5,0.5V495.4z"/>
	</g>
</g>
<g>
	<g>
		<path class="st0" d="M256.1,230.9L256.1,230.9c-4.5,0-8.1,3.6-8.1,8s3.6,8,8.1,8c4.4,0,8-3.6,8-8S260.5,230.9,256.1,230.9z"/>
	</g>
</g>
<g>
	<g>
		<path class="st0" d="M213.3,367.7L213.3,367.7c-4.5,0-8.1,3.6-8.1,8c0,4.4,3.6,8,8.1,8s8-3.6,8-8
			C221.3,371.3,217.8,367.7,213.3,367.7z"/>
	</g>
</g>
<g>
	<g>
		<path class="st0" d="M298.8,367.7L298.8,367.7c-4.5,0-8.1,3.6-8.1,8c0,4.4,3.6,8,8.1,8s8-3.6,8-8
			C306.9,371.3,303.3,367.7,298.8,367.7z"/>
	</g>
</g>
<g>
	<g>
		<path class="st0" d="M384.3,367.7L384.3,367.7c-4.5,0-8.1,3.6-8.1,8c0,4.4,3.6,8,8.1,8s8-3.6,8-8S388.7,367.7,384.3,367.7z"/>
	</g>
</g>
<g>
	<g>
		<path class="st0" d="M127.8,367.7L127.8,367.7c-4.5,0-8.1,3.6-8.1,8c0,4.4,3.6,8,8.1,8s8-3.6,8-8
			C135.8,371.3,132.2,367.7,127.8,367.7z"/>
	</g>
</g>
<g>
	<g>
		<path class="st0" d="M341.6,230.9L341.6,230.9c-4.5,0-8.1,3.6-8.1,8s3.6,8,8.1,8s8-3.6,8-8S346,230.9,341.6,230.9z"/>
	</g>
</g>
<g>
	<g>
		<path class="st0" d="M170.5,230.9L170.5,230.9c-4.5,0-8.1,3.6-8.1,8s3.6,8,8.1,8s8-3.6,8-8S174.9,230.9,170.5,230.9z"/>
	</g>
</g>
</svg>
