<?xml version="1.0" encoding="UTF-8"?>
<svg width="20px" height="15px" viewBox="0 0 20 15" version="1.1" xmlns="http://www.w3.org/2000/svg" xmlns:xlink="http://www.w3.org/1999/xlink">
    <!-- Generator: Sketch 44.1 (41455) - http://www.bohemiancoding.com/sketch -->
    <title>“</title>
    <desc>Created with Sketch.</desc>
    <defs></defs>
    <g id="Page-1" stroke="none" stroke-width="1" fill="none" fill-rule="evenodd">
        <g id="tour-detail" transform="translate(-618.000000, -1525.000000)" fill="#000000">
            <path d="M618.862,1539.028 C618.429998,1538.056 618.214,1536.86801 618.214,1535.464 C618.214,1533.26799 618.816994,1531.31501 620.023,1529.605 C621.229006,1527.89499 623.019988,1526.608 625.396,1525.744 C626.368005,1526.248 626.854,1527.00399 626.854,1528.012 L626.854,1528.498 C624.441988,1529.61401 623.182001,1531.14399 623.074,1533.088 C624.334006,1533.16 625.116998,1533.43 625.423,1533.898 C625.729002,1534.366 625.882,1535.19399 625.882,1536.382 C625.882,1537.21 625.801001,1537.849 625.639,1538.299 C625.476999,1538.749 625.234002,1539.082 624.91,1539.298 C624.585998,1539.514 624.181002,1539.64 623.695,1539.676 C623.208998,1539.712 622.642003,1539.73 621.994,1539.73 C620.517993,1539.73 619.474003,1539.496 618.862,1539.028 Z M629.338,1539.028 C628.905998,1538.056 628.69,1536.86801 628.69,1535.464 C628.69,1533.26799 629.292994,1531.31501 630.499,1529.605 C631.705006,1527.89499 633.495988,1526.608 635.872,1525.744 C636.844005,1526.248 637.33,1527.00399 637.33,1528.012 L637.33,1528.498 C634.917988,1529.61401 633.658001,1531.14399 633.55,1533.088 C634.810006,1533.16 635.592998,1533.43 635.899,1533.898 C636.205002,1534.366 636.358,1535.19399 636.358,1536.382 C636.358,1537.21 636.277001,1537.849 636.115,1538.299 C635.952999,1538.749 635.710002,1539.082 635.386,1539.298 C635.061998,1539.514 634.657002,1539.64 634.171,1539.676 C633.684998,1539.712 633.118003,1539.73 632.47,1539.73 C630.993993,1539.73 629.950003,1539.496 629.338,1539.028 Z" id="“"></path>
        </g>
    </g>
</svg>